<svg width="48" height="48" viewBox="0 0 48 48" fill="none" xmlns="http://www.w3.org/2000/svg">
<path d="M15.2598 29.2031C17.9318 27.2323 21.5551 25.4794 25.3779 26.3486C30.1169 27.428 32.7196 31.3004 33.6621 33.0088C33.9871 32.834 34.2894 32.619 34.5566 32.3623L35.6982 31.2178C35.8003 31.1147 35.922 31.0326 36.0557 30.9766C36.1893 30.9206 36.3327 30.8918 36.4775 30.8916C36.6225 30.8915 36.7665 30.9208 36.9004 30.9766C37.0341 31.0323 37.1557 31.1139 37.2578 31.2168C37.36 31.3198 37.4409 31.4419 37.4961 31.5762C37.5513 31.7105 37.5792 31.8547 37.5791 32C37.579 32.1453 37.5505 32.2896 37.4951 32.4238C37.4398 32.5577 37.358 32.6786 37.2559 32.7812L36.1221 33.9248C36.0958 33.9513 36.0024 34.0319 35.9883 34.0439V34.0449C35.3625 34.5757 34.6591 35.1409 33.7666 35.3174C33.2877 36.155 32.2285 37.8274 30.6455 39.3184C28.9957 40.8722 26.7564 42.25 24 42.25C19.7768 42.25 16.4762 40.4831 14.2129 38.6875C11.9526 36.8942 10.7145 35.0628 10.6064 34.8994C10.4778 34.7051 10.4136 34.4742 10.4229 34.2412C10.4322 34.0083 10.5136 33.7839 10.6572 33.6006C10.8053 33.4115 12.5811 31.1789 15.2598 29.2031ZM24.8906 28.5088C22.2709 27.9136 19.6385 28.9519 17.4453 30.3896C15.3839 31.7411 13.7493 33.4211 12.9385 34.3271C14.2804 35.9698 18.191 40.0361 24 40.0361C25.7527 40.0361 27.2851 39.2484 28.541 38.2158C29.6278 37.3222 30.4946 36.2548 31.1006 35.3896L18.3281 35.3926C18.0359 35.3925 17.756 35.2759 17.5498 35.0684C17.3437 34.8607 17.2276 34.579 17.2275 34.2861C17.2275 33.9931 17.3436 33.7117 17.5498 33.5039C17.756 33.2962 18.0357 33.1788 18.3281 33.1787H31.1748C30.0972 31.5702 28.0412 29.2264 24.8906 28.5088ZM21.7314 6.89258C22.0028 6.89256 22.2641 6.99399 22.4658 7.17578C22.6676 7.35762 22.7953 7.60766 22.8252 7.87793L22.877 8.48828C22.9443 9.50569 23.013 11.6537 22.6553 14.1123C22.1791 17.3842 20.9401 21.2563 17.8828 23.7207C14.8206 26.1886 12.0335 26.828 9.97559 26.8281C9.07129 26.8339 8.17208 26.7023 7.30664 26.4404C7.08755 26.7263 6.9623 27.0763 6.95117 27.4404V29.7148C6.95054 30.0074 6.83492 30.2879 6.62891 30.4951C6.42269 30.7024 6.14271 30.8193 5.85059 30.8193C5.55851 30.8193 5.27844 30.7024 5.07227 30.4951C4.86634 30.2879 4.75063 30.0073 4.75 29.7148V27.4238L4.75781 27.2432C4.81153 26.3944 5.135 25.5848 5.68164 24.9355C5.0964 23.5559 4.77818 22.0761 4.75 20.5752V20.5635L4.78125 19.9482C5.00746 16.8796 6.31233 13.9841 8.47363 11.79L8.47461 11.7891C10.8879 9.35764 14.1256 8.13712 16.7832 7.52246C19.4442 6.90703 21.5516 6.89258 21.7314 6.89258ZM26.1914 5.75293C26.3359 5.74271 26.4809 5.76139 26.6182 5.80762L28.7695 6.53223L28.7744 6.53418C29.6583 6.85219 30.3986 7.47632 30.8652 8.29199C32.6127 8.36005 37.377 8.89654 40.4609 12.665L40.7617 13.0508L41.2402 13.7148C41.7108 14.3957 42.1491 15.135 42.4951 16.0244C42.9569 17.2113 43.25 18.6538 43.25 20.5713V20.5752C43.2126 23.3835 42.8171 26.1754 42.0723 28.8818L42.0703 28.8857C41.9915 29.1542 41.8146 29.3829 41.5742 29.5254C41.3337 29.6679 41.048 29.7128 40.7754 29.6514C40.5441 29.5995 37.8456 28.9755 34.8994 27.4521C31.9576 25.931 28.7206 23.4884 27.4932 19.7783C25.9058 14.98 28.0012 10.8368 28.9258 9.33789C28.7231 9.01336 28.4208 8.76324 28.0625 8.62891L25.9189 7.90723C25.7817 7.86099 25.6549 7.78782 25.5459 7.69238C25.4369 7.59693 25.3476 7.48055 25.2832 7.35059C25.2189 7.22066 25.181 7.07924 25.1709 6.93457C25.1608 6.78982 25.1789 6.64453 25.2246 6.50684C25.2703 6.36921 25.3419 6.2416 25.4365 6.13184C25.5312 6.02207 25.647 5.93226 25.7764 5.86719C25.9058 5.80211 26.0469 5.76315 26.1914 5.75293ZM38.5537 21.1416C38.6284 21.2659 38.6785 21.4044 38.7002 21.5479C38.7219 21.6912 38.7151 21.8376 38.6807 21.9785C38.6462 22.1194 38.5844 22.2521 38.499 22.3691C38.4136 22.4862 38.3063 22.5857 38.1826 22.6611C38.0589 22.7365 37.9214 22.7866 37.7783 22.8086C37.6352 22.8306 37.4892 22.8239 37.3486 22.7891C37.2081 22.7542 37.0754 22.6917 36.959 22.6055C36.8428 22.5193 36.7445 22.4112 36.6699 22.2871L30.2334 11.5674C29.45 13.2257 28.5745 16.0337 29.582 19.0791C30.4234 21.6219 32.5382 23.5023 34.7695 24.8389C36.8455 26.0823 38.9929 26.8352 40.2246 27.207C40.7374 25.0319 41.0159 22.8072 41.0488 20.5713L41.0381 19.9902C40.9883 18.679 40.7685 17.6798 40.4463 16.8467C40.0776 15.8934 39.5692 15.1438 38.999 14.3779C37.129 11.8658 34.2176 10.9756 32.2588 10.6631L38.5537 21.1416ZM20.7012 9.16211C19.6393 9.24805 17.8796 9.469 15.9795 10.0361C13.915 10.6524 11.7021 11.6707 10.0332 13.3516C8.14252 15.2863 7.0427 17.8677 6.95117 20.582C6.9649 21.3887 7.08857 22.1887 7.31543 22.9609L15.2002 13.0234C15.2904 12.91 15.4017 12.8153 15.5283 12.7451C15.655 12.6749 15.7946 12.6303 15.9385 12.6143C16.0824 12.5982 16.2282 12.6107 16.3672 12.6514C16.506 12.692 16.6354 12.7597 16.748 12.8506C16.8609 12.9416 16.9549 13.0543 17.0244 13.1816C17.0939 13.3089 17.1375 13.4486 17.1533 13.5928C17.1692 13.737 17.1573 13.8831 17.1172 14.0225C17.0771 14.1617 17.01 14.2919 16.9199 14.4053L8.875 24.5361C10.4502 24.7715 13.2322 24.6314 16.5059 21.9932C18.6218 20.2874 19.7032 17.6377 20.2373 15.082C20.7348 12.7008 20.7489 10.4328 20.7012 9.16211Z" fill="#007E40" stroke="#007E40" stroke-width="0.5"/>
</svg>
