<svg width="48" height="49" viewBox="0 0 48 49" fill="none" xmlns="http://www.w3.org/2000/svg">
<mask id="path-1-outside-1_5883_8981" maskUnits="userSpaceOnUse" x="8" y="1" width="32" height="47" fill="black">
<rect fill="white" x="8" y="1" width="32" height="47"/>
<path d="M31.5979 14.1265C33.9671 12.082 35.3575 9.07697 35.3575 5.89471C35.3575 5.55505 35.0866 5.28028 34.7518 5.28028C32.2056 5.28028 29.8024 6.17811 27.8832 7.82668C27.1794 5.70436 25.9981 3.76591 24.4286 2.17362C24.2004 1.94213 23.7974 1.94213 23.5713 2.17362C22.0019 3.76591 20.8204 5.70436 20.1168 7.82668C18.1976 6.17811 15.7942 5.28028 13.2481 5.28028C12.9133 5.28028 12.6425 5.55504 12.6425 5.89471C12.6425 9.07714 14.0329 12.0822 16.402 14.1265C12.0219 16.3267 9 20.911 9 26.1963C9 29.0759 9.934 31.9336 11.6315 34.2442L19.2169 44.5661C20.3535 46.113 22.0978 47 24 47C25.9022 47 27.6465 46.113 28.7831 44.5661L36.3685 34.2442C38.066 31.9358 39 29.0779 39 26.1963C39 20.911 35.9804 16.3269 31.5979 14.1265ZM13.8727 6.53052C16.1886 6.68412 18.3403 7.68146 19.9842 9.37976C20.1378 9.53769 20.3617 9.60043 20.5728 9.54418C20.7839 9.48794 20.9481 9.31919 21.0035 9.105C21.5388 7.01946 22.5688 5.09397 23.9975 3.49957C25.4263 5.09403 26.4562 7.01951 26.9915 9.105C27.047 9.31919 27.2112 9.48794 27.4223 9.54418C27.6334 9.60043 27.8594 9.53986 28.0108 9.37976C29.6549 7.68146 31.8045 6.68194 34.1223 6.53052C33.9389 9.31701 32.5571 11.8937 30.3372 13.5726C28.8999 13.0318 27.3474 12.7332 25.7268 12.7332H22.2658C20.6451 12.7332 19.0927 13.0296 17.6554 13.5726C15.4355 11.8916 14.0537 9.31712 13.8703 6.53052H13.8727ZM35.3937 33.5087L27.8082 43.8306C26.9019 45.0638 25.5137 45.7712 23.9975 45.7712C22.4813 45.7712 21.0931 45.0638 20.1868 43.8306L12.6013 33.5087C11.0596 31.4101 10.2108 28.814 10.2108 26.1963C10.2108 19.4505 15.6187 13.9642 22.2678 13.9642H25.7288C32.378 13.9642 37.7858 19.4506 37.7858 26.1963C37.7858 28.8141 36.9371 31.4102 35.3953 33.5087H35.3937ZM19.2745 17.7286V19.6606C19.2745 20.0003 19.0037 20.275 18.6689 20.275C18.3341 20.275 18.0633 20.0003 18.0633 19.6606V17.7286C18.0633 17.389 18.3341 17.1142 18.6689 17.1142C19.0037 17.1142 19.2745 17.389 19.2745 17.7286ZM24.6036 17.7286V19.6606C24.6036 20.0003 24.3327 20.275 23.9979 20.275C23.6631 20.275 23.3923 20.0003 23.3923 19.6606V17.7286C23.3923 17.389 23.6631 17.1142 23.9979 17.1142C24.3327 17.1142 24.6036 17.389 24.6036 17.7286ZM28.7192 19.6606V17.7286C28.7192 17.389 28.9901 17.1142 29.3249 17.1142C29.6597 17.1142 29.9305 17.389 29.9305 17.7286V19.6606C29.9305 20.0003 29.6597 20.275 29.3249 20.275C28.9901 20.275 28.7192 20.0003 28.7192 19.6606ZM13.9458 24.5868V26.5187C13.9458 26.8584 13.675 27.1332 13.3402 27.1332C13.0054 27.1332 12.7345 26.8584 12.7345 26.5187V24.5868C12.7345 24.2471 13.0053 23.9723 13.3402 23.9723C13.675 23.9723 13.9458 24.2471 13.9458 24.5868ZM19.2748 24.5868V26.5187C19.2748 26.8584 19.004 27.1332 18.6692 27.1332C18.3344 27.1332 18.0635 26.8584 18.0635 26.5187V24.5868C18.0635 24.2471 18.3344 23.9723 18.6692 23.9723C19.004 23.9723 19.2748 24.2471 19.2748 24.5868ZM24.6038 24.5868V26.5187C24.6038 26.8584 24.333 27.1332 23.9982 27.1332C23.6634 27.1332 23.3926 26.8584 23.3926 26.5187V24.5868C23.3926 24.2471 23.6634 23.9723 23.9982 23.9723C24.333 23.9723 24.6038 24.2471 24.6038 24.5868ZM29.9328 26.5187C29.9328 26.8584 29.662 27.1332 29.3272 27.1332C28.9924 27.1332 28.7216 26.8584 28.7216 26.5187V24.5868C28.7216 24.2471 28.9924 23.9723 29.3272 23.9723C29.662 23.9723 29.9328 24.2471 29.9328 24.5868V26.5187ZM21.9402 38.0779V40.0099C21.9402 40.3496 21.6693 40.6243 21.3345 40.6243C20.9997 40.6243 20.7289 40.3496 20.7289 40.0099V38.0779C20.7289 37.7383 20.9997 37.4635 21.3345 37.4635C21.6693 37.4635 21.9402 37.7383 21.9402 38.0779ZM27.2692 38.0779V40.0099C27.2692 40.3496 26.9984 40.6243 26.6636 40.6243C26.3288 40.6243 26.0579 40.3496 26.0579 40.0099V38.0779C26.0579 37.7383 26.3287 37.4635 26.6636 37.4635C26.9984 37.4635 27.2692 37.7383 27.2692 38.0779ZM18.236 31.8816V33.8135C18.236 34.1532 17.9652 34.428 17.6304 34.428C17.2956 34.428 17.0247 34.1532 17.0247 33.8135V31.8816C17.0247 31.5419 17.2956 31.2671 17.6304 31.2671C17.9652 31.2671 18.236 31.5419 18.236 31.8816ZM24.6035 31.8816V33.8135C24.6035 34.1532 24.3327 34.428 23.9979 34.428C23.6631 34.428 23.3922 34.1532 23.3922 33.8135V31.8816C23.3922 31.5419 23.6631 31.2671 23.9979 31.2671C24.3327 31.2671 24.6035 31.5419 24.6035 31.8816ZM30.971 31.8816V33.8135C30.971 34.1532 30.7002 34.428 30.3654 34.428C30.0306 34.428 29.7597 34.1532 29.7597 33.8135V31.8816C29.7597 31.5419 30.0306 31.2671 30.3654 31.2671C30.7002 31.2671 30.971 31.5419 30.971 31.8816ZM35.2594 24.5864V26.5183C35.2594 26.858 34.9886 27.1328 34.6538 27.1328C34.319 27.1328 34.0481 26.858 34.0481 26.5183V24.5864C34.0481 24.2467 34.319 23.9719 34.6538 23.9719C34.9886 23.9719 35.2594 24.2467 35.2594 24.5864Z"/>
</mask>
<path d="M31.5979 14.1265C33.9671 12.082 35.3575 9.07697 35.3575 5.89471C35.3575 5.55505 35.0866 5.28028 34.7518 5.28028C32.2056 5.28028 29.8024 6.17811 27.8832 7.82668C27.1794 5.70436 25.9981 3.76591 24.4286 2.17362C24.2004 1.94213 23.7974 1.94213 23.5713 2.17362C22.0019 3.76591 20.8204 5.70436 20.1168 7.82668C18.1976 6.17811 15.7942 5.28028 13.2481 5.28028C12.9133 5.28028 12.6425 5.55504 12.6425 5.89471C12.6425 9.07714 14.0329 12.0822 16.402 14.1265C12.0219 16.3267 9 20.911 9 26.1963C9 29.0759 9.934 31.9336 11.6315 34.2442L19.2169 44.5661C20.3535 46.113 22.0978 47 24 47C25.9022 47 27.6465 46.113 28.7831 44.5661L36.3685 34.2442C38.066 31.9358 39 29.0779 39 26.1963C39 20.911 35.9804 16.3269 31.5979 14.1265ZM13.8727 6.53052C16.1886 6.68412 18.3403 7.68146 19.9842 9.37976C20.1378 9.53769 20.3617 9.60043 20.5728 9.54418C20.7839 9.48794 20.9481 9.31919 21.0035 9.105C21.5388 7.01946 22.5688 5.09397 23.9975 3.49957C25.4263 5.09403 26.4562 7.01951 26.9915 9.105C27.047 9.31919 27.2112 9.48794 27.4223 9.54418C27.6334 9.60043 27.8594 9.53986 28.0108 9.37976C29.6549 7.68146 31.8045 6.68194 34.1223 6.53052C33.9389 9.31701 32.5571 11.8937 30.3372 13.5726C28.8999 13.0318 27.3474 12.7332 25.7268 12.7332H22.2658C20.6451 12.7332 19.0927 13.0296 17.6554 13.5726C15.4355 11.8916 14.0537 9.31712 13.8703 6.53052H13.8727ZM35.3937 33.5087L27.8082 43.8306C26.9019 45.0638 25.5137 45.7712 23.9975 45.7712C22.4813 45.7712 21.0931 45.0638 20.1868 43.8306L12.6013 33.5087C11.0596 31.4101 10.2108 28.814 10.2108 26.1963C10.2108 19.4505 15.6187 13.9642 22.2678 13.9642H25.7288C32.378 13.9642 37.7858 19.4506 37.7858 26.1963C37.7858 28.8141 36.9371 31.4102 35.3953 33.5087H35.3937ZM19.2745 17.7286V19.6606C19.2745 20.0003 19.0037 20.275 18.6689 20.275C18.3341 20.275 18.0633 20.0003 18.0633 19.6606V17.7286C18.0633 17.389 18.3341 17.1142 18.6689 17.1142C19.0037 17.1142 19.2745 17.389 19.2745 17.7286ZM24.6036 17.7286V19.6606C24.6036 20.0003 24.3327 20.275 23.9979 20.275C23.6631 20.275 23.3923 20.0003 23.3923 19.6606V17.7286C23.3923 17.389 23.6631 17.1142 23.9979 17.1142C24.3327 17.1142 24.6036 17.389 24.6036 17.7286ZM28.7192 19.6606V17.7286C28.7192 17.389 28.9901 17.1142 29.3249 17.1142C29.6597 17.1142 29.9305 17.389 29.9305 17.7286V19.6606C29.9305 20.0003 29.6597 20.275 29.3249 20.275C28.9901 20.275 28.7192 20.0003 28.7192 19.6606ZM13.9458 24.5868V26.5187C13.9458 26.8584 13.675 27.1332 13.3402 27.1332C13.0054 27.1332 12.7345 26.8584 12.7345 26.5187V24.5868C12.7345 24.2471 13.0053 23.9723 13.3402 23.9723C13.675 23.9723 13.9458 24.2471 13.9458 24.5868ZM19.2748 24.5868V26.5187C19.2748 26.8584 19.004 27.1332 18.6692 27.1332C18.3344 27.1332 18.0635 26.8584 18.0635 26.5187V24.5868C18.0635 24.2471 18.3344 23.9723 18.6692 23.9723C19.004 23.9723 19.2748 24.2471 19.2748 24.5868ZM24.6038 24.5868V26.5187C24.6038 26.8584 24.333 27.1332 23.9982 27.1332C23.6634 27.1332 23.3926 26.8584 23.3926 26.5187V24.5868C23.3926 24.2471 23.6634 23.9723 23.9982 23.9723C24.333 23.9723 24.6038 24.2471 24.6038 24.5868ZM29.9328 26.5187C29.9328 26.8584 29.662 27.1332 29.3272 27.1332C28.9924 27.1332 28.7216 26.8584 28.7216 26.5187V24.5868C28.7216 24.2471 28.9924 23.9723 29.3272 23.9723C29.662 23.9723 29.9328 24.2471 29.9328 24.5868V26.5187ZM21.9402 38.0779V40.0099C21.9402 40.3496 21.6693 40.6243 21.3345 40.6243C20.9997 40.6243 20.7289 40.3496 20.7289 40.0099V38.0779C20.7289 37.7383 20.9997 37.4635 21.3345 37.4635C21.6693 37.4635 21.9402 37.7383 21.9402 38.0779ZM27.2692 38.0779V40.0099C27.2692 40.3496 26.9984 40.6243 26.6636 40.6243C26.3288 40.6243 26.0579 40.3496 26.0579 40.0099V38.0779C26.0579 37.7383 26.3287 37.4635 26.6636 37.4635C26.9984 37.4635 27.2692 37.7383 27.2692 38.0779ZM18.236 31.8816V33.8135C18.236 34.1532 17.9652 34.428 17.6304 34.428C17.2956 34.428 17.0247 34.1532 17.0247 33.8135V31.8816C17.0247 31.5419 17.2956 31.2671 17.6304 31.2671C17.9652 31.2671 18.236 31.5419 18.236 31.8816ZM24.6035 31.8816V33.8135C24.6035 34.1532 24.3327 34.428 23.9979 34.428C23.6631 34.428 23.3922 34.1532 23.3922 33.8135V31.8816C23.3922 31.5419 23.6631 31.2671 23.9979 31.2671C24.3327 31.2671 24.6035 31.5419 24.6035 31.8816ZM30.971 31.8816V33.8135C30.971 34.1532 30.7002 34.428 30.3654 34.428C30.0306 34.428 29.7597 34.1532 29.7597 33.8135V31.8816C29.7597 31.5419 30.0306 31.2671 30.3654 31.2671C30.7002 31.2671 30.971 31.5419 30.971 31.8816ZM35.2594 24.5864V26.5183C35.2594 26.858 34.9886 27.1328 34.6538 27.1328C34.319 27.1328 34.0481 26.858 34.0481 26.5183V24.5864C34.0481 24.2467 34.319 23.9719 34.6538 23.9719C34.9886 23.9719 35.2594 24.2467 35.2594 24.5864Z" fill="#007E40"/>
<path d="M31.5979 14.1265C33.9671 12.082 35.3575 9.07697 35.3575 5.89471C35.3575 5.55505 35.0866 5.28028 34.7518 5.28028C32.2056 5.28028 29.8024 6.17811 27.8832 7.82668C27.1794 5.70436 25.9981 3.76591 24.4286 2.17362C24.2004 1.94213 23.7974 1.94213 23.5713 2.17362C22.0019 3.76591 20.8204 5.70436 20.1168 7.82668C18.1976 6.17811 15.7942 5.28028 13.2481 5.28028C12.9133 5.28028 12.6425 5.55504 12.6425 5.89471C12.6425 9.07714 14.0329 12.0822 16.402 14.1265C12.0219 16.3267 9 20.911 9 26.1963C9 29.0759 9.934 31.9336 11.6315 34.2442L19.2169 44.5661C20.3535 46.113 22.0978 47 24 47C25.9022 47 27.6465 46.113 28.7831 44.5661L36.3685 34.2442C38.066 31.9358 39 29.0779 39 26.1963C39 20.911 35.9804 16.3269 31.5979 14.1265ZM13.8727 6.53052C16.1886 6.68412 18.3403 7.68146 19.9842 9.37976C20.1378 9.53769 20.3617 9.60043 20.5728 9.54418C20.7839 9.48794 20.9481 9.31919 21.0035 9.105C21.5388 7.01946 22.5688 5.09397 23.9975 3.49957C25.4263 5.09403 26.4562 7.01951 26.9915 9.105C27.047 9.31919 27.2112 9.48794 27.4223 9.54418C27.6334 9.60043 27.8594 9.53986 28.0108 9.37976C29.6549 7.68146 31.8045 6.68194 34.1223 6.53052C33.9389 9.31701 32.5571 11.8937 30.3372 13.5726C28.8999 13.0318 27.3474 12.7332 25.7268 12.7332H22.2658C20.6451 12.7332 19.0927 13.0296 17.6554 13.5726C15.4355 11.8916 14.0537 9.31712 13.8703 6.53052H13.8727ZM35.3937 33.5087L27.8082 43.8306C26.9019 45.0638 25.5137 45.7712 23.9975 45.7712C22.4813 45.7712 21.0931 45.0638 20.1868 43.8306L12.6013 33.5087C11.0596 31.4101 10.2108 28.814 10.2108 26.1963C10.2108 19.4505 15.6187 13.9642 22.2678 13.9642H25.7288C32.378 13.9642 37.7858 19.4506 37.7858 26.1963C37.7858 28.8141 36.9371 31.4102 35.3953 33.5087H35.3937ZM19.2745 17.7286V19.6606C19.2745 20.0003 19.0037 20.275 18.6689 20.275C18.3341 20.275 18.0633 20.0003 18.0633 19.6606V17.7286C18.0633 17.389 18.3341 17.1142 18.6689 17.1142C19.0037 17.1142 19.2745 17.389 19.2745 17.7286ZM24.6036 17.7286V19.6606C24.6036 20.0003 24.3327 20.275 23.9979 20.275C23.6631 20.275 23.3923 20.0003 23.3923 19.6606V17.7286C23.3923 17.389 23.6631 17.1142 23.9979 17.1142C24.3327 17.1142 24.6036 17.389 24.6036 17.7286ZM28.7192 19.6606V17.7286C28.7192 17.389 28.9901 17.1142 29.3249 17.1142C29.6597 17.1142 29.9305 17.389 29.9305 17.7286V19.6606C29.9305 20.0003 29.6597 20.275 29.3249 20.275C28.9901 20.275 28.7192 20.0003 28.7192 19.6606ZM13.9458 24.5868V26.5187C13.9458 26.8584 13.675 27.1332 13.3402 27.1332C13.0054 27.1332 12.7345 26.8584 12.7345 26.5187V24.5868C12.7345 24.2471 13.0053 23.9723 13.3402 23.9723C13.675 23.9723 13.9458 24.2471 13.9458 24.5868ZM19.2748 24.5868V26.5187C19.2748 26.8584 19.004 27.1332 18.6692 27.1332C18.3344 27.1332 18.0635 26.8584 18.0635 26.5187V24.5868C18.0635 24.2471 18.3344 23.9723 18.6692 23.9723C19.004 23.9723 19.2748 24.2471 19.2748 24.5868ZM24.6038 24.5868V26.5187C24.6038 26.8584 24.333 27.1332 23.9982 27.1332C23.6634 27.1332 23.3926 26.8584 23.3926 26.5187V24.5868C23.3926 24.2471 23.6634 23.9723 23.9982 23.9723C24.333 23.9723 24.6038 24.2471 24.6038 24.5868ZM29.9328 26.5187C29.9328 26.8584 29.662 27.1332 29.3272 27.1332C28.9924 27.1332 28.7216 26.8584 28.7216 26.5187V24.5868C28.7216 24.2471 28.9924 23.9723 29.3272 23.9723C29.662 23.9723 29.9328 24.2471 29.9328 24.5868V26.5187ZM21.9402 38.0779V40.0099C21.9402 40.3496 21.6693 40.6243 21.3345 40.6243C20.9997 40.6243 20.7289 40.3496 20.7289 40.0099V38.0779C20.7289 37.7383 20.9997 37.4635 21.3345 37.4635C21.6693 37.4635 21.9402 37.7383 21.9402 38.0779ZM27.2692 38.0779V40.0099C27.2692 40.3496 26.9984 40.6243 26.6636 40.6243C26.3288 40.6243 26.0579 40.3496 26.0579 40.0099V38.0779C26.0579 37.7383 26.3287 37.4635 26.6636 37.4635C26.9984 37.4635 27.2692 37.7383 27.2692 38.0779ZM18.236 31.8816V33.8135C18.236 34.1532 17.9652 34.428 17.6304 34.428C17.2956 34.428 17.0247 34.1532 17.0247 33.8135V31.8816C17.0247 31.5419 17.2956 31.2671 17.6304 31.2671C17.9652 31.2671 18.236 31.5419 18.236 31.8816ZM24.6035 31.8816V33.8135C24.6035 34.1532 24.3327 34.428 23.9979 34.428C23.6631 34.428 23.3922 34.1532 23.3922 33.8135V31.8816C23.3922 31.5419 23.6631 31.2671 23.9979 31.2671C24.3327 31.2671 24.6035 31.5419 24.6035 31.8816ZM30.971 31.8816V33.8135C30.971 34.1532 30.7002 34.428 30.3654 34.428C30.0306 34.428 29.7597 34.1532 29.7597 33.8135V31.8816C29.7597 31.5419 30.0306 31.2671 30.3654 31.2671C30.7002 31.2671 30.971 31.5419 30.971 31.8816ZM35.2594 24.5864V26.5183C35.2594 26.858 34.9886 27.1328 34.6538 27.1328C34.319 27.1328 34.0481 26.858 34.0481 26.5183V24.5864C34.0481 24.2467 34.319 23.9719 34.6538 23.9719C34.9886 23.9719 35.2594 24.2467 35.2594 24.5864Z" stroke="#007E40" stroke-width="1.5" mask="url(#path-1-outside-1_5883_8981)"/>
</svg>
