<svg xmlns="http://www.w3.org/2000/svg" fill="none" viewBox="0 0 48 48" height="48" width="48">
<g clip-path="url(#clip0_3041_580)">
<mask height="48" width="48" y="0" x="0" maskUnits="userSpaceOnUse" style="mask-type:luminance" id="mask0_3041_580">
<path fill="white" d="M48 0H0V48H48V0Z"></path>
</mask>
<g mask="url(#mask0_3041_580)">
<path fill="#007E40" d="M24 48C37.2548 48 48 37.2548 48 24C48 10.7452 37.2548 0 24 0C10.7452 0 0 10.7452 0 24C0 37.2548 10.7452 48 24 48Z"></path>
<mask height="30" width="30" y="9" x="12" maskUnits="userSpaceOnUse" style="mask-type:luminance" id="mask1_3041_580">
<path fill="white" d="M42 9H12V39H42V9Z"></path>
</mask>
<g mask="url(#mask1_3041_580)">
<path fill="white" d="M20.7007 9.01439C21.9329 9.06928 23.5541 8.89691 25.1647 9.10973C27.2537 9.3861 28.9759 10.3568 30.3699 11.9274C30.4334 11.9997 30.5066 12.0661 30.5586 12.1451C30.7713 12.4725 30.9677 12.4696 31.2247 12.1701C31.8495 11.4411 32.4984 10.7314 33.1337 10.0111C33.6305 9.44774 33.978 9.46988 34.3592 10.1045C34.5652 10.4473 34.7712 10.7921 34.9513 11.1493C35.1091 11.4633 35.2786 11.5124 35.5914 11.3265C36.79 10.6168 38.0058 9.93501 39.2111 9.23588C39.5201 9.05676 39.8359 8.89883 40.1132 9.23877C40.3721 9.55752 40.1738 9.84449 39.9553 10.0939C38.5382 11.704 37.1163 13.3112 35.6964 14.9194C35.4634 15.1833 35.2401 15.4578 34.9907 15.7062C34.6105 16.0847 34.2976 16.0548 34.0117 15.607C33.7527 15.2026 33.5101 14.7865 33.2839 14.3628C33.1491 14.1096 33.023 14.0662 32.7592 14.2116C32.1094 14.5699 32.0969 14.5564 32.2211 15.27C32.3308 15.9007 32.4695 16.5276 32.5629 17.1613C32.6119 17.4935 32.7361 17.5513 33.0394 17.4444C33.8702 17.1516 34.7067 16.8753 35.5452 16.6056C36.2672 16.3736 36.5224 16.5652 36.5358 17.3317C36.5416 17.7006 36.5551 18.0694 36.5349 18.4372C36.5137 18.8138 36.6706 18.9476 37.0403 18.9438C38.338 18.9313 39.6347 18.939 40.9324 18.9399C41.1567 18.9399 41.382 18.9332 41.5976 19.0112C41.8238 19.093 41.9962 19.224 42.0019 19.4898C42.0067 19.744 41.8777 19.9183 41.6438 20.004C41.1779 20.1745 40.71 20.3411 40.2393 20.498C38.3255 21.1365 36.4107 21.7721 34.495 22.4057C33.7672 22.6465 33.4832 22.4452 33.4543 21.6633C33.4399 21.279 33.4418 20.8938 33.4495 20.5096C33.4553 20.2014 33.3118 20.083 33.0105 20.083C32.7044 20.083 32.5773 20.213 32.5783 20.5163C32.5821 21.9907 32.5802 23.464 32.5783 24.9384C32.5754 26.5119 32.3337 28.0276 31.5848 29.4413C30.8888 30.7529 29.8702 31.7467 28.6419 32.5421C28.1182 32.8811 27.5771 33.197 27.0294 33.4945C26.6934 33.6775 26.55 33.926 26.5528 34.3054C26.5634 35.6507 26.5596 36.9969 26.5577 38.3432C26.5577 38.8921 26.1899 39.1328 25.6826 38.9239C25.4236 38.817 25.4804 38.583 25.4795 38.3865C25.4737 37.1529 25.4775 35.9193 25.4746 34.6858C25.4737 34.1783 25.465 34.1725 25.0135 34.4132C23.4761 35.2347 21.8376 35.5919 20.101 35.4667C19.712 35.4388 19.5975 35.5553 19.6081 35.9367C19.6312 36.7687 19.6013 37.6027 19.6206 38.4356C19.6292 38.8391 19.4646 38.9624 19.0776 38.9614C18.6916 38.9614 18.526 38.8382 18.5347 38.4347C18.553 37.5535 18.5251 36.6724 18.5462 35.7913C18.5549 35.4147 18.4211 35.2106 18.0668 35.071C16.5419 34.4691 15.1894 33.6159 14.1044 32.3582C12.8645 30.9205 12.1858 29.2555 12.1001 27.3719C11.9403 23.9311 12.0212 20.4855 12.0193 17.0419C12.0193 15.6648 11.9644 14.2877 12.078 12.9106C12.2561 10.7487 14.0515 9.04521 16.2339 9.01728C17.5951 8.99995 18.9553 9.01439 20.7007 9.01439ZM20.2078 17.0996V17.0977C19.1027 17.0977 17.9965 17.1102 16.8923 17.091C16.5053 17.0842 16.2859 17.2248 16.101 17.5667C15.2048 19.2307 14.2854 20.8823 13.3641 22.5328C13.2178 22.7957 13.1533 23.0615 13.1543 23.3572C13.1591 24.4627 13.1706 25.5691 13.1533 26.6746C13.1225 28.5688 13.7078 30.2396 14.9516 31.6639C17.0579 34.0752 19.714 34.9525 22.7878 34.1282C25.8174 33.3154 27.7129 31.2643 28.3232 28.1682C28.6775 26.3703 28.3588 24.5224 28.5023 22.7014C28.5234 22.4317 28.3579 22.2593 28.1201 22.1447C27.7013 21.9425 27.2874 21.7326 26.8725 21.5227C25.3553 20.7542 25.4727 20.9978 25.4708 19.2943C25.4708 19.2144 25.4708 19.1344 25.4679 19.0536C25.4284 17.8845 24.6506 17.1131 23.4771 17.1006C22.3883 17.09 21.2985 17.0987 20.2088 17.0987L20.2078 17.0996ZM13.265 20.4913C14.0072 19.1518 14.7331 17.8729 15.4243 16.5758C15.6476 16.1559 15.9441 15.9566 16.411 15.9575C18.7012 15.9624 20.9914 15.9518 23.2807 15.9652C24.4571 15.972 25.4371 16.3986 26.0917 17.4251C26.5066 18.0761 26.5673 18.808 26.548 19.5533C26.5394 19.8923 26.5942 20.1822 26.9475 20.3507C28.0787 20.889 29.1376 21.6527 30.4998 21.4456C30.7915 21.4013 31.1352 21.7297 31.3537 21.4726C31.554 21.2366 31.3999 20.8534 31.4307 20.5375C31.4712 20.1331 31.2863 20.005 30.8974 20.0165C30.1456 20.0397 29.3927 20.0281 28.6399 20.0281C28.3415 20.0281 28.0912 19.927 28.0248 19.6063C27.9564 19.276 28.1769 19.1075 28.4397 18.9861C28.5408 18.939 28.6496 18.9081 28.7555 18.8725C29.5131 18.6135 30.2669 18.3429 31.0293 18.1002C31.3576 17.9962 31.5116 17.8094 31.4846 17.4704C31.4346 16.831 31.3528 16.1973 31.1853 15.5762C31.1044 15.2748 30.9715 15.2314 30.7078 15.3913C30.1735 15.7149 29.6257 16.0153 29.0866 16.3293C28.7699 16.5141 28.4435 16.699 28.1384 16.3456C27.8226 15.9787 28.0874 15.7014 28.3299 15.4308C28.8642 14.8347 29.3899 14.2309 29.929 13.6387C30.0926 13.4586 30.1417 13.3238 29.9694 13.1052C28.4493 11.1763 26.4932 10.1151 24.0152 10.1026C21.5171 10.0891 19.0189 10.091 16.5208 10.0958C14.4568 10.0997 13.162 11.3959 13.1552 13.4615C13.1485 15.6243 13.1523 17.7863 13.1552 19.9491C13.1552 20.1032 13.1129 20.2669 13.2621 20.4913H13.265ZM29.6045 24.4482C29.6045 24.9586 29.6016 25.469 29.6065 25.9803C29.6084 26.1537 29.5978 26.3299 29.8202 26.4098C30.6616 26.7132 31.4461 26.2115 31.4875 25.3197C31.5097 24.8421 31.4991 24.3625 31.4943 23.8839C31.4847 22.8294 31.0649 22.4539 30.0079 22.5145C29.7287 22.5309 29.5997 22.632 29.6036 22.9161C29.6103 23.4265 29.6055 23.9369 29.6055 24.4473L29.6045 24.4482ZM36.8083 12.0391C36.7813 12.0074 36.7553 11.9756 36.7284 11.9428C36.2817 12.1884 35.8369 12.4369 35.3874 12.6776C34.9994 12.8866 34.6836 12.8211 34.4574 12.4195C34.261 12.0709 34.0386 11.7368 33.8538 11.3824C33.7104 11.107 33.5852 11.1243 33.3994 11.3352C32.8305 11.9842 32.2519 12.6266 31.6801 13.2737C31.5828 13.3844 31.4481 13.4778 31.4182 13.7157C31.9188 13.4345 32.3588 13.1784 32.8074 12.9376C33.332 12.6564 33.5246 12.7075 33.8365 13.2015C34.0502 13.5395 34.2524 13.8842 34.4545 14.2299C34.5518 14.3965 34.648 14.488 34.8136 14.2993C35.4759 13.5443 36.1421 12.7922 36.8063 12.0391H36.8083ZM32.2895 18.8292C32.2981 18.8658 32.3058 18.9024 32.3145 18.9399C32.5532 18.9399 32.792 18.938 33.0307 18.9399C33.2704 18.9428 33.5111 18.9361 33.7498 18.9563C34.3968 19.0121 34.5209 19.1489 34.5286 19.7922C34.5335 20.16 34.5296 20.5279 34.5344 20.8958C34.5363 21.0729 34.5739 21.2366 34.8107 21.1586C35.7753 20.8418 36.737 20.5183 37.6997 20.1976C37.6949 20.1552 37.6901 20.1128 37.6853 20.0705C37.2155 20.0705 36.7438 20.0907 36.2749 20.0657C35.6117 20.031 35.4692 19.8682 35.4567 19.2096C35.4499 18.8581 35.4499 18.5056 35.4538 18.1532C35.4567 17.896 35.3604 17.8026 35.1005 17.8903C34.1657 18.2071 33.2281 18.5162 32.2904 18.8282L32.2895 18.8292ZM28.2597 31.427C28.7352 31.2228 28.9884 30.9339 29.2666 30.6874C30.1494 29.9064 30.7289 28.9261 31.0967 27.8168C31.1323 27.7099 31.2815 27.4893 31.0187 27.4951C30.5605 27.5038 30.0599 27.3844 29.6536 27.6049C29.3735 27.7561 29.4678 28.1837 29.3927 28.488C29.3619 28.6122 29.3292 28.7354 29.3003 28.8597C29.0953 29.7273 28.7275 30.5333 28.2597 31.4289V31.427Z"></path>
<path fill="white" d="M22.3207 25.0106C21.6103 25.0203 21.0298 24.4502 21.0298 23.7443C21.0298 23.0336 21.5939 22.476 22.3159 22.4732C22.9888 22.4703 23.5732 23.0394 23.5896 23.7144C23.6059 24.403 23.0206 25.0019 22.3207 25.0106Z"></path>
<path fill="white" d="M15.8381 25.0098C15.1709 25.0184 14.5567 24.4387 14.5423 23.7877C14.5269 23.0934 15.1103 22.4819 15.7976 22.4733C16.5206 22.4636 17.0963 23.0116 17.1098 23.7213C17.1232 24.4252 16.5553 25.0002 15.8381 25.0098Z"></path>
<path fill="white" d="M19.3241 29.5549C20.2791 29.5029 21.159 29.2968 21.9301 28.7576C22.1832 28.5804 22.4412 28.3695 22.2323 28.0074C22.0283 27.6559 21.7173 27.679 21.3958 27.8273C21.0049 28.0093 20.6237 28.2135 20.2059 28.3339C19.2625 28.6073 18.372 28.4581 17.5162 28.0122C17.3602 27.9313 17.212 27.8293 17.0483 27.7705C16.7576 27.6646 16.5034 27.7368 16.3542 28.0209C16.2108 28.2953 16.3234 28.5226 16.5545 28.6863C17.1658 29.1197 17.8473 29.3806 18.5896 29.4808C18.8427 29.5145 19.0979 29.5318 19.3231 29.553L19.3241 29.5549Z"></path>
</g>
</g>
</g>
<defs>
<clipPath id="clip0_3041_580">
<rect fill="white" height="48" width="48"></rect>
</clipPath>
</defs>
</svg>
