<svg xmlns="http://www.w3.org/2000/svg" fill="none" viewBox="0 0 143 174" height="174" width="143">
<path fill="#FFCC2E" d="M119.3 92.4C119.3 81.4 112.2 72 102.4 68.6C106.8 62.4 109.4 54.8 109.4 46.6C109.4 38.4 109.3 43.5 109.1 42C113.4 37.8 116 32 116 25.6C116 12.9 105.7 2.59998 93 2.59998C80.3 2.59998 81.1 5.09998 76.9 9.19998C75.1 8.89998 73.3 8.79998 71.4 8.79998C69.5 8.79998 67.7 8.89998 65.9 9.19998C61.8 5.09998 56.1 2.59998 49.8 2.59998C37.1 2.59998 26.8 12.9 26.8 25.6C26.8 38.3 29.5 37.9 33.7 42C33.5 43.5 33.4 45 33.4 46.6C33.4 54.8 36 62.4 40.4 68.6C30.5 72 23.5 81.4 23.5 92.4C23.5 103.4 24.3 99.6 25.8 102.8V104.4C25.8 109 27.7 113.2 30.7 116.2V150C30.7 161.8 40.3 171.5 52.2 171.5C64.1 171.5 67.9 166.6 71.4 159.5C74.9 166.6 82.2 171.5 90.6 171.5C99 171.5 112.1 161.9 112.1 150V116.2C115.1 113.2 117 109 117 104.4V102.8C118.4 99.6 119.3 96.1 119.3 92.4ZM93 9.49998C101.8 9.49998 109 16.7 109 25.5C109 34.3 108.3 31 106.9 33.3C103.2 23.3 95.3 15.3 85.4 11.3C87.6 10.1 90.2 9.39998 92.9 9.39998L93 9.49998ZM33.9 25.5C33.9 16.7 41.1 9.49998 49.9 9.49998C58.7 9.49998 55.2 10.2 57.4 11.4C47.5 15.4 39.6 23.4 35.9 33.4C34.6 31.1 33.8 28.4 33.8 25.6L33.9 25.5ZM40.6 46.6C40.6 44 40.9 41.6 41.5 39.2C44.2 28.4 52.6 19.8 63.4 16.8C65.8 16.2 68.2 15.8 70.8 15.7H72.2C74.7 15.7 77.2 16.1 79.6 16.8C90.4 19.7 98.8 28.3 101.5 39.2C102.1 41.6 102.4 44 102.4 46.6C102.4 54.5 99.4 61.7 94.5 67.2C89.3 73 82 76.8 73.8 77.4C73 77.4 72.3 77.5 71.5 77.5C70.7 77.5 70 77.5 69.2 77.4C61 76.8 53.6 73 48.5 67.2C43.6 61.7 40.6 54.5 40.6 46.6ZM32.9 104.4C32.9 103.5 33 102.5 33.3 101.7C34.5 97.7 38.2 94.7 42.6 94.7C47 94.7 52.3 99.1 52.3 104.4C52.3 109.7 51.5 108.9 50.1 110.6C48.3 112.8 45.6 114.2 42.6 114.2C37.2 114.2 32.9 109.8 32.9 104.5V104.4ZM52.3 164.5C44.3 164.5 37.8 158 37.8 150C37.8 142 44.3 135.5 52.3 135.5C60.3 135.5 66.8 142 66.8 150C66.8 158 60.3 164.5 52.3 164.5ZM90.7 164.5C82.7 164.5 76.2 158 76.2 150C76.2 142 82.7 135.5 90.7 135.5C98.7 135.5 105.2 142 105.2 150C105.2 158 98.7 164.5 90.7 164.5ZM100.4 114.1C97.4 114.1 94.7 112.7 92.9 110.5C91.5 108.8 90.7 106.7 90.7 104.3C90.7 98.9 95.1 94.6 100.4 94.6C105.7 94.6 108.6 97.6 109.7 101.6C110 102.5 110.1 103.4 110.1 104.3C110.1 109.7 105.7 114 100.4 114V114.1ZM112.3 92.7C109.3 89.6 105.1 87.7 100.4 87.7C91.2 87.7 83.7 95.2 83.7 104.4C83.7 113.6 83.8 106.6 84 107.6C84.7 111.4 86.8 114.8 89.7 117.2C92.6 119.6 96.3 121.1 100.4 121.1C104.5 121.1 103.7 120.8 105.2 120.4V134.2C101.4 130.7 96.3 128.5 90.7 128.5C82.3 128.5 75 133.4 71.5 140.5C68 133.4 60.7 128.5 52.3 128.5C43.9 128.5 41.6 130.7 37.8 134.2V120.4C39.3 120.9 40.9 121.1 42.6 121.1C46.7 121.1 50.4 119.6 53.3 117.2C56.2 114.8 58.3 111.4 59 107.6C59.2 106.6 59.3 105.5 59.3 104.4C59.3 95.2 51.8 87.7 42.6 87.7C33.4 87.7 33.7 89.6 30.7 92.7V92.4C30.7 83.4 37.2 75.9 45.8 74.4C51.1 79.3 57.8 82.7 65.2 83.9C67.3 84.2 69.4 84.4 71.5 84.4C73.6 84.4 75.8 84.2 77.8 83.9C85.2 82.6 91.9 79.2 97.2 74.4C105.8 75.9 112.3 83.4 112.3 92.4V92.7Z"></path>
<path fill="#FFCC2E" d="M58.8999 37.9C61.0999 37.9 62.7999 36.1 62.7999 34C62.7999 31.9 60.9999 30 58.8999 30C56.7999 30 54.8999 31.8 54.8999 34C54.8999 36.2 56.6999 37.9 58.8999 37.9ZM84.0999 37.9C86.2999 37.9 87.9999 36.1 87.9999 34C87.9999 31.9 86.1999 30 84.0999 30C81.9999 30 80.0999 31.8 80.0999 34C80.0999 36.2 81.8999 37.9 84.0999 37.9ZM55.3999 56.4C55.3999 65.3 62.5999 72.5 71.4999 72.5C80.3999 72.5 87.5999 65.3 87.5999 56.4C87.5999 47.5 80.3999 40.3 71.4999 40.3C62.5999 40.3 55.3999 47.5 55.3999 56.4ZM67.5999 48.2C67.7999 50.2 69.4999 51.7 71.4999 51.7C73.4999 51.7 75.1999 50.2 75.3999 48.2C78.4999 49.7 80.5999 52.8 80.5999 56.4C80.5999 60 76.4999 65.5 71.4999 65.5C66.4999 65.5 62.3999 61.4 62.3999 56.4C62.3999 51.4 64.4999 49.7 67.5999 48.2Z"></path>
</svg>
