<svg width="48" height="49" viewBox="0 0 48 49" fill="none" xmlns="http://www.w3.org/2000/svg">
<mask id="path-1-outside-1_5883_8994" maskUnits="userSpaceOnUse" x="3" y="5" width="42" height="40" fill="black">
<rect fill="white" x="3" y="5" width="42" height="40"/>
<path d="M21.0693 6.01751C22.0172 5.95517 22.8367 6.24436 23.7569 6.29458C24.4322 6.33268 25.0295 6.18202 25.684 6.07119C27.2482 5.80624 28.9149 6.28592 30.0312 7.42537C30.559 7.96568 30.9583 8.53365 31.5972 8.97523L31.6319 8.99947C32.2673 9.0393 32.8888 8.95098 33.5208 9.08086C35.2795 9.43932 36.7674 10.6151 37.3802 12.3208C38.0035 14.0525 37.6302 13.7148 39.0851 14.9461C39.5625 15.3496 39.9636 15.8085 40.3073 16.3314L40.3664 16.321C41.8647 16.0682 42.3039 16.5964 42.7831 17.8813C45.007 23.8522 44.172 30.5068 40.3664 35.6864C36.908 40.3948 32.5783 42.9421 26.8924 43.8132C22.6927 44.3483 18.3661 43.756 14.6043 41.7508C6.38551 37.3696 2.17346 28.2005 4.75705 19.2355C5.1199 17.973 5.7536 15.4344 7.65464 16.5063C7.99319 15.9384 8.35776 15.4223 8.85257 14.9773C10.014 13.9348 9.98107 14.2378 10.4967 12.7036C11.1772 10.6758 12.8509 9.16747 15.0541 9.01164C15.5072 8.98047 15.9621 9.04281 16.4135 9.00298L16.4569 8.99952C16.8319 8.76921 17.1166 8.41595 17.4134 8.09907C18.5159 6.91977 19.4048 6.23752 21.0698 6.01759L21.0693 6.01751ZM40.9878 17.4257C39.0832 17.5607 38.3176 19.4015 37.6075 20.844C36.9947 22.0891 36.0797 23.2025 34.9304 23.9957C33.5085 24.9775 32.5051 25.116 31.4547 26.8685C30.7776 27.9976 30.913 28.8115 30.5745 29.9631C30.3488 30.7302 29.9998 31.2584 29.6439 31.9406C31.2133 31.144 32.7116 30.0427 33.7116 28.576C33.9234 28.266 34.2081 27.672 34.6856 27.8435C35.854 28.2643 33.8661 30.2835 33.4946 30.6575C32.1959 31.9632 30.8383 32.7407 29.1508 33.4576C26.873 34.4257 24.9962 34.8014 23.4321 36.9089C22.1595 38.7514 21.7428 40.4796 21.7463 42.6892C26.0501 43.1499 30.2553 42.3325 33.9375 40.0727C41.2709 35.5686 44.6772 26.9134 41.8509 18.7592C41.7034 18.3332 41.5697 17.8397 41.3092 17.4691C41.1947 17.4223 41.111 17.3841 40.9878 17.4257ZM22.8556 15.8879C21.6055 16.1078 20.1785 16.6429 19.4128 17.7252C18.8173 18.5685 18.7583 19.3184 17.8243 20.1686C17.1194 20.8111 16.2861 20.9894 15.484 21.431C13.7322 22.3956 12.7062 24.4355 12.9127 26.4094C14.635 27.7947 16.2183 27.9194 17.5501 30.0858C17.7151 28.8528 18.6942 24.7798 19.7307 23.9938C20.196 23.6423 20.7203 24.0354 20.6144 24.5705C20.5554 24.8631 20.0502 25.5645 19.8869 25.9229C19.0553 27.7602 18.5779 29.8071 18.6508 31.8331C19.1769 31.3344 20.9391 29.7499 21.6005 29.7568C22.2168 29.7638 22.2481 30.4893 21.8627 30.8166C21.321 31.2773 20.6543 31.5682 20.1699 32.1067C19.6821 32.4046 19.2585 32.8652 18.854 33.2652C19.0658 34.9762 19.9929 38.0601 20.913 39.6205C21.7689 36.5641 23.5259 34.4099 26.5069 33.2253C27.8454 32.692 28.3645 31.9456 29.0659 30.6123C29.5746 29.6442 29.5607 28.7698 29.842 27.7567C30.4114 25.7047 31.743 24.5271 33.4826 23.4898C32.6129 21.1399 31.9861 20.3642 29.6301 19.836C28.6249 19.6109 27.7065 19.0359 27.1301 18.177C26.1214 16.6705 24.7792 15.7615 22.8556 15.8879ZM6.75804 17.4257C6.49935 17.6681 6.38477 18.0854 6.26323 18.4093C4.20938 23.9369 5.09482 30.2541 8.57921 35.0281C11.3865 38.8759 15.8397 41.8613 20.5882 42.54C20.5917 42.2699 20.6386 41.875 20.5865 41.6188C20.5639 41.5062 19.5848 39.5304 19.498 39.397C18.1594 39.3243 16.6021 38.4792 15.6403 37.61C14.2931 36.2939 13.5448 34.7146 13.5343 32.8169C13.5309 32.4324 13.6628 32.2142 14.0343 32.1069C14.7618 32.2385 14.6646 32.6472 14.7114 33.2671C14.885 35.6257 16.7149 37.5773 18.9875 38.1418C18.4754 36.8066 18.0014 35.4698 17.7896 34.0515C17.4632 31.8748 16.5274 29.9007 14.5118 28.7681C14.0361 28.5014 13.5361 28.2885 13.0812 27.9854C11.135 26.6866 9.70789 24.6502 9.21655 22.3642C8.87106 20.752 9.22176 19.7442 7.98392 18.2376C7.70613 17.8982 7.24938 17.3893 6.75804 17.4257ZM15.199 10.1767C13.541 10.3065 12.1869 11.4009 11.6452 12.9439C11.4455 13.5136 11.3205 14.0608 10.9733 14.5699C10.2684 15.5951 9.22847 15.9085 8.61215 17.1848C9.46807 18.1666 10.0392 19.3425 10.1955 20.6464C10.4247 22.5842 10.4594 23.4604 11.7667 25.185C11.8379 23.9313 12.4785 22.5598 13.3397 21.6437C13.9682 20.8887 14.864 20.3796 15.7564 19.9986C18.3068 18.9042 17.5376 17.8063 19.0081 16.4158C20.1835 15.3023 21.7408 14.7084 23.3502 14.7153C23.1453 13.5603 22.5464 12.5438 21.5741 11.8701C20.2634 10.961 19.5932 11.4649 18.3553 11.1307C17.2581 10.8346 16.4473 10.0191 15.199 10.1767ZM32.4406 10.1767C31.8242 10.2113 31.3208 10.3394 30.7773 10.6338C29.7148 11.2122 29.3034 11.155 28.1054 11.226C26.2252 11.3403 24.8711 13.1915 24.6349 14.9266C26.0342 15.3734 27.0585 15.9743 27.9093 17.1934C28.7148 18.3485 28.9041 18.4818 30.3381 18.8021C31.8207 19.1364 32.4961 19.6888 33.4822 20.7745C33.8815 21.4291 34.2426 22.1079 34.5135 22.8266C36.767 21.4014 36.7704 18.1926 39.2095 16.8002C38.6957 15.9534 37.7373 15.498 37.1262 14.7135C36.5793 14.0139 36.5793 13.5585 36.3032 12.7948C35.7112 11.1567 34.1576 10.1454 32.4406 10.1767ZM26.2636 7.21893C25.3608 7.26914 24.7254 7.53236 23.715 7.50119C23.1195 7.48214 22.5569 7.29165 21.9701 7.23797C19.4944 7.01286 19.142 8.3099 17.6802 9.51513C18.8225 10.161 18.8503 10.0052 20.0465 10.0952C21.1351 10.1784 22.1785 10.7169 22.9389 11.4875C23.3712 11.9395 23.7288 12.388 24.017 12.9456C24.6854 11.6745 25.7896 10.6442 27.1785 10.2078C28.3956 9.8251 29.1942 10.2996 30.4008 9.51513C29.0345 8.45189 28.5918 6.91588 26.2636 7.21893Z"/>
</mask>
<path d="M21.0693 6.01751C22.0172 5.95517 22.8367 6.24436 23.7569 6.29458C24.4322 6.33268 25.0295 6.18202 25.684 6.07119C27.2482 5.80624 28.9149 6.28592 30.0312 7.42537C30.559 7.96568 30.9583 8.53365 31.5972 8.97523L31.6319 8.99947C32.2673 9.0393 32.8888 8.95098 33.5208 9.08086C35.2795 9.43932 36.7674 10.6151 37.3802 12.3208C38.0035 14.0525 37.6302 13.7148 39.0851 14.9461C39.5625 15.3496 39.9636 15.8085 40.3073 16.3314L40.3664 16.321C41.8647 16.0682 42.3039 16.5964 42.7831 17.8813C45.007 23.8522 44.172 30.5068 40.3664 35.6864C36.908 40.3948 32.5783 42.9421 26.8924 43.8132C22.6927 44.3483 18.3661 43.756 14.6043 41.7508C6.38551 37.3696 2.17346 28.2005 4.75705 19.2355C5.1199 17.973 5.7536 15.4344 7.65464 16.5063C7.99319 15.9384 8.35776 15.4223 8.85257 14.9773C10.014 13.9348 9.98107 14.2378 10.4967 12.7036C11.1772 10.6758 12.8509 9.16747 15.0541 9.01164C15.5072 8.98047 15.9621 9.04281 16.4135 9.00298L16.4569 8.99952C16.8319 8.76921 17.1166 8.41595 17.4134 8.09907C18.5159 6.91977 19.4048 6.23752 21.0698 6.01759L21.0693 6.01751ZM40.9878 17.4257C39.0832 17.5607 38.3176 19.4015 37.6075 20.844C36.9947 22.0891 36.0797 23.2025 34.9304 23.9957C33.5085 24.9775 32.5051 25.116 31.4547 26.8685C30.7776 27.9976 30.913 28.8115 30.5745 29.9631C30.3488 30.7302 29.9998 31.2584 29.6439 31.9406C31.2133 31.144 32.7116 30.0427 33.7116 28.576C33.9234 28.266 34.2081 27.672 34.6856 27.8435C35.854 28.2643 33.8661 30.2835 33.4946 30.6575C32.1959 31.9632 30.8383 32.7407 29.1508 33.4576C26.873 34.4257 24.9962 34.8014 23.4321 36.9089C22.1595 38.7514 21.7428 40.4796 21.7463 42.6892C26.0501 43.1499 30.2553 42.3325 33.9375 40.0727C41.2709 35.5686 44.6772 26.9134 41.8509 18.7592C41.7034 18.3332 41.5697 17.8397 41.3092 17.4691C41.1947 17.4223 41.111 17.3841 40.9878 17.4257ZM22.8556 15.8879C21.6055 16.1078 20.1785 16.6429 19.4128 17.7252C18.8173 18.5685 18.7583 19.3184 17.8243 20.1686C17.1194 20.8111 16.2861 20.9894 15.484 21.431C13.7322 22.3956 12.7062 24.4355 12.9127 26.4094C14.635 27.7947 16.2183 27.9194 17.5501 30.0858C17.7151 28.8528 18.6942 24.7798 19.7307 23.9938C20.196 23.6423 20.7203 24.0354 20.6144 24.5705C20.5554 24.8631 20.0502 25.5645 19.8869 25.9229C19.0553 27.7602 18.5779 29.8071 18.6508 31.8331C19.1769 31.3344 20.9391 29.7499 21.6005 29.7568C22.2168 29.7638 22.2481 30.4893 21.8627 30.8166C21.321 31.2773 20.6543 31.5682 20.1699 32.1067C19.6821 32.4046 19.2585 32.8652 18.854 33.2652C19.0658 34.9762 19.9929 38.0601 20.913 39.6205C21.7689 36.5641 23.5259 34.4099 26.5069 33.2253C27.8454 32.692 28.3645 31.9456 29.0659 30.6123C29.5746 29.6442 29.5607 28.7698 29.842 27.7567C30.4114 25.7047 31.743 24.5271 33.4826 23.4898C32.6129 21.1399 31.9861 20.3642 29.6301 19.836C28.6249 19.6109 27.7065 19.0359 27.1301 18.177C26.1214 16.6705 24.7792 15.7615 22.8556 15.8879ZM6.75804 17.4257C6.49935 17.6681 6.38477 18.0854 6.26323 18.4093C4.20938 23.9369 5.09482 30.2541 8.57921 35.0281C11.3865 38.8759 15.8397 41.8613 20.5882 42.54C20.5917 42.2699 20.6386 41.875 20.5865 41.6188C20.5639 41.5062 19.5848 39.5304 19.498 39.397C18.1594 39.3243 16.6021 38.4792 15.6403 37.61C14.2931 36.2939 13.5448 34.7146 13.5343 32.8169C13.5309 32.4324 13.6628 32.2142 14.0343 32.1069C14.7618 32.2385 14.6646 32.6472 14.7114 33.2671C14.885 35.6257 16.7149 37.5773 18.9875 38.1418C18.4754 36.8066 18.0014 35.4698 17.7896 34.0515C17.4632 31.8748 16.5274 29.9007 14.5118 28.7681C14.0361 28.5014 13.5361 28.2885 13.0812 27.9854C11.135 26.6866 9.70789 24.6502 9.21655 22.3642C8.87106 20.752 9.22176 19.7442 7.98392 18.2376C7.70613 17.8982 7.24938 17.3893 6.75804 17.4257ZM15.199 10.1767C13.541 10.3065 12.1869 11.4009 11.6452 12.9439C11.4455 13.5136 11.3205 14.0608 10.9733 14.5699C10.2684 15.5951 9.22847 15.9085 8.61215 17.1848C9.46807 18.1666 10.0392 19.3425 10.1955 20.6464C10.4247 22.5842 10.4594 23.4604 11.7667 25.185C11.8379 23.9313 12.4785 22.5598 13.3397 21.6437C13.9682 20.8887 14.864 20.3796 15.7564 19.9986C18.3068 18.9042 17.5376 17.8063 19.0081 16.4158C20.1835 15.3023 21.7408 14.7084 23.3502 14.7153C23.1453 13.5603 22.5464 12.5438 21.5741 11.8701C20.2634 10.961 19.5932 11.4649 18.3553 11.1307C17.2581 10.8346 16.4473 10.0191 15.199 10.1767ZM32.4406 10.1767C31.8242 10.2113 31.3208 10.3394 30.7773 10.6338C29.7148 11.2122 29.3034 11.155 28.1054 11.226C26.2252 11.3403 24.8711 13.1915 24.6349 14.9266C26.0342 15.3734 27.0585 15.9743 27.9093 17.1934C28.7148 18.3485 28.9041 18.4818 30.3381 18.8021C31.8207 19.1364 32.4961 19.6888 33.4822 20.7745C33.8815 21.4291 34.2426 22.1079 34.5135 22.8266C36.767 21.4014 36.7704 18.1926 39.2095 16.8002C38.6957 15.9534 37.7373 15.498 37.1262 14.7135C36.5793 14.0139 36.5793 13.5585 36.3032 12.7948C35.7112 11.1567 34.1576 10.1454 32.4406 10.1767ZM26.2636 7.21893C25.3608 7.26914 24.7254 7.53236 23.715 7.50119C23.1195 7.48214 22.5569 7.29165 21.9701 7.23797C19.4944 7.01286 19.142 8.3099 17.6802 9.51513C18.8225 10.161 18.8503 10.0052 20.0465 10.0952C21.1351 10.1784 22.1785 10.7169 22.9389 11.4875C23.3712 11.9395 23.7288 12.388 24.017 12.9456C24.6854 11.6745 25.7896 10.6442 27.1785 10.2078C28.3956 9.8251 29.1942 10.2996 30.4008 9.51513C29.0345 8.45189 28.5918 6.91588 26.2636 7.21893Z" fill="#007E40"/>
<path d="M21.0693 6.01751C22.0172 5.95517 22.8367 6.24436 23.7569 6.29458C24.4322 6.33268 25.0295 6.18202 25.684 6.07119C27.2482 5.80624 28.9149 6.28592 30.0312 7.42537C30.559 7.96568 30.9583 8.53365 31.5972 8.97523L31.6319 8.99947C32.2673 9.0393 32.8888 8.95098 33.5208 9.08086C35.2795 9.43932 36.7674 10.6151 37.3802 12.3208C38.0035 14.0525 37.6302 13.7148 39.0851 14.9461C39.5625 15.3496 39.9636 15.8085 40.3073 16.3314L40.3664 16.321C41.8647 16.0682 42.3039 16.5964 42.7831 17.8813C45.007 23.8522 44.172 30.5068 40.3664 35.6864C36.908 40.3948 32.5783 42.9421 26.8924 43.8132C22.6927 44.3483 18.3661 43.756 14.6043 41.7508C6.38551 37.3696 2.17346 28.2005 4.75705 19.2355C5.1199 17.973 5.7536 15.4344 7.65464 16.5063C7.99319 15.9384 8.35776 15.4223 8.85257 14.9773C10.014 13.9348 9.98107 14.2378 10.4967 12.7036C11.1772 10.6758 12.8509 9.16747 15.0541 9.01164C15.5072 8.98047 15.9621 9.04281 16.4135 9.00298L16.4569 8.99952C16.8319 8.76921 17.1166 8.41595 17.4134 8.09907C18.5159 6.91977 19.4048 6.23752 21.0698 6.01759L21.0693 6.01751ZM40.9878 17.4257C39.0832 17.5607 38.3176 19.4015 37.6075 20.844C36.9947 22.0891 36.0797 23.2025 34.9304 23.9957C33.5085 24.9775 32.5051 25.116 31.4547 26.8685C30.7776 27.9976 30.913 28.8115 30.5745 29.9631C30.3488 30.7302 29.9998 31.2584 29.6439 31.9406C31.2133 31.144 32.7116 30.0427 33.7116 28.576C33.9234 28.266 34.2081 27.672 34.6856 27.8435C35.854 28.2643 33.8661 30.2835 33.4946 30.6575C32.1959 31.9632 30.8383 32.7407 29.1508 33.4576C26.873 34.4257 24.9962 34.8014 23.4321 36.9089C22.1595 38.7514 21.7428 40.4796 21.7463 42.6892C26.0501 43.1499 30.2553 42.3325 33.9375 40.0727C41.2709 35.5686 44.6772 26.9134 41.8509 18.7592C41.7034 18.3332 41.5697 17.8397 41.3092 17.4691C41.1947 17.4223 41.111 17.3841 40.9878 17.4257ZM22.8556 15.8879C21.6055 16.1078 20.1785 16.6429 19.4128 17.7252C18.8173 18.5685 18.7583 19.3184 17.8243 20.1686C17.1194 20.8111 16.2861 20.9894 15.484 21.431C13.7322 22.3956 12.7062 24.4355 12.9127 26.4094C14.635 27.7947 16.2183 27.9194 17.5501 30.0858C17.7151 28.8528 18.6942 24.7798 19.7307 23.9938C20.196 23.6423 20.7203 24.0354 20.6144 24.5705C20.5554 24.8631 20.0502 25.5645 19.8869 25.9229C19.0553 27.7602 18.5779 29.8071 18.6508 31.8331C19.1769 31.3344 20.9391 29.7499 21.6005 29.7568C22.2168 29.7638 22.2481 30.4893 21.8627 30.8166C21.321 31.2773 20.6543 31.5682 20.1699 32.1067C19.6821 32.4046 19.2585 32.8652 18.854 33.2652C19.0658 34.9762 19.9929 38.0601 20.913 39.6205C21.7689 36.5641 23.5259 34.4099 26.5069 33.2253C27.8454 32.692 28.3645 31.9456 29.0659 30.6123C29.5746 29.6442 29.5607 28.7698 29.842 27.7567C30.4114 25.7047 31.743 24.5271 33.4826 23.4898C32.6129 21.1399 31.9861 20.3642 29.6301 19.836C28.6249 19.6109 27.7065 19.0359 27.1301 18.177C26.1214 16.6705 24.7792 15.7615 22.8556 15.8879ZM6.75804 17.4257C6.49935 17.6681 6.38477 18.0854 6.26323 18.4093C4.20938 23.9369 5.09482 30.2541 8.57921 35.0281C11.3865 38.8759 15.8397 41.8613 20.5882 42.54C20.5917 42.2699 20.6386 41.875 20.5865 41.6188C20.5639 41.5062 19.5848 39.5304 19.498 39.397C18.1594 39.3243 16.6021 38.4792 15.6403 37.61C14.2931 36.2939 13.5448 34.7146 13.5343 32.8169C13.5309 32.4324 13.6628 32.2142 14.0343 32.1069C14.7618 32.2385 14.6646 32.6472 14.7114 33.2671C14.885 35.6257 16.7149 37.5773 18.9875 38.1418C18.4754 36.8066 18.0014 35.4698 17.7896 34.0515C17.4632 31.8748 16.5274 29.9007 14.5118 28.7681C14.0361 28.5014 13.5361 28.2885 13.0812 27.9854C11.135 26.6866 9.70789 24.6502 9.21655 22.3642C8.87106 20.752 9.22176 19.7442 7.98392 18.2376C7.70613 17.8982 7.24938 17.3893 6.75804 17.4257ZM15.199 10.1767C13.541 10.3065 12.1869 11.4009 11.6452 12.9439C11.4455 13.5136 11.3205 14.0608 10.9733 14.5699C10.2684 15.5951 9.22847 15.9085 8.61215 17.1848C9.46807 18.1666 10.0392 19.3425 10.1955 20.6464C10.4247 22.5842 10.4594 23.4604 11.7667 25.185C11.8379 23.9313 12.4785 22.5598 13.3397 21.6437C13.9682 20.8887 14.864 20.3796 15.7564 19.9986C18.3068 18.9042 17.5376 17.8063 19.0081 16.4158C20.1835 15.3023 21.7408 14.7084 23.3502 14.7153C23.1453 13.5603 22.5464 12.5438 21.5741 11.8701C20.2634 10.961 19.5932 11.4649 18.3553 11.1307C17.2581 10.8346 16.4473 10.0191 15.199 10.1767ZM32.4406 10.1767C31.8242 10.2113 31.3208 10.3394 30.7773 10.6338C29.7148 11.2122 29.3034 11.155 28.1054 11.226C26.2252 11.3403 24.8711 13.1915 24.6349 14.9266C26.0342 15.3734 27.0585 15.9743 27.9093 17.1934C28.7148 18.3485 28.9041 18.4818 30.3381 18.8021C31.8207 19.1364 32.4961 19.6888 33.4822 20.7745C33.8815 21.4291 34.2426 22.1079 34.5135 22.8266C36.767 21.4014 36.7704 18.1926 39.2095 16.8002C38.6957 15.9534 37.7373 15.498 37.1262 14.7135C36.5793 14.0139 36.5793 13.5585 36.3032 12.7948C35.7112 11.1567 34.1576 10.1454 32.4406 10.1767ZM26.2636 7.21893C25.3608 7.26914 24.7254 7.53236 23.715 7.50119C23.1195 7.48214 22.5569 7.29165 21.9701 7.23797C19.4944 7.01286 19.142 8.3099 17.6802 9.51513C18.8225 10.161 18.8503 10.0052 20.0465 10.0952C21.1351 10.1784 22.1785 10.7169 22.9389 11.4875C23.3712 11.9395 23.7288 12.388 24.017 12.9456C24.6854 11.6745 25.7896 10.6442 27.1785 10.2078C28.3956 9.8251 29.1942 10.2996 30.4008 9.51513C29.0345 8.45189 28.5918 6.91588 26.2636 7.21893Z" stroke="#007E40" stroke-width="1.5" mask="url(#path-1-outside-1_5883_8994)"/>
</svg>
