<svg xmlns="http://www.w3.org/2000/svg" fill="none" viewBox="0 0 48 48" height="48" width="48">
<g clip-path="url(#clip0_3041_494)">
<mask height="48" width="48" y="0" x="0" maskUnits="userSpaceOnUse" style="mask-type:luminance" id="mask0_3041_494">
<path fill="white" d="M48 0H0V48H48V0Z"></path>
</mask>
<g mask="url(#mask0_3041_494)">
<path fill="#007E40" d="M24 48C37.2548 48 48 37.2548 48 24C48 10.7452 37.2548 0 24 0C10.7452 0 0 10.7452 0 24C0 37.2548 10.7452 48 24 48Z"></path>
<mask height="31" width="31" y="8" x="8" maskUnits="userSpaceOnUse" style="mask-type:luminance" id="mask1_3041_494">
<path fill="white" d="M39 8H8V39H39V8Z"></path>
</mask>
<g mask="url(#mask1_3041_494)">
<path fill="white" d="M12.879 8C13.1074 8.1238 13.2634 8.30587 13.394 8.52981C14.3839 10.2272 15.3842 11.9186 16.3797 13.6124C16.5908 13.9717 16.5741 14.0955 16.2868 14.3771C16.103 14.5561 15.9166 14.5082 15.7346 14.3771C15.6511 14.3176 15.5867 14.2369 15.5347 14.1495C14.9726 13.2003 14.4272 12.2415 13.8465 11.3026C13.5339 10.7121 13.1749 10.1484 12.8387 9.57121C12.7038 9.33938 12.6604 9.33878 12.5181 9.58274C11.9263 10.5968 11.3252 11.6055 10.7334 12.6196C10.3149 13.3363 9.87969 14.0439 9.47916 14.7703C8.22869 17.0395 9.63888 19.7407 12.2519 20.0751C12.6895 20.1309 13.134 20.1163 13.5661 19.9931C15.0772 19.6339 16.1872 18.3582 16.3258 16.8313C16.345 16.6195 16.363 16.412 16.3277 16.2002C16.3048 16.0612 16.3035 15.9131 16.3704 15.7838C16.4527 15.626 16.5264 15.4416 16.7715 15.4913C17.1752 15.5229 17.294 15.6358 17.3305 16.0229C17.559 18.4341 15.8702 20.6504 13.5277 21.0133C10.9463 21.4139 8.67564 19.9149 8.10179 17.4388C8.07888 17.3405 8.11479 17.2124 7.99902 17.142V15.8706C8.0504 14.9712 8.53078 14.2405 8.96969 13.4929C9.96326 11.8015 10.955 10.1095 11.9554 8.42178C12.0841 8.20452 12.2352 8.02852 12.5088 8H12.879Z"></path>
<path fill="white" d="M24.4897 38.0333C25.7785 37.9732 26.9677 37.58 28.0808 36.9634C29.6185 36.1107 30.7674 34.8891 31.5858 33.3591C31.6855 33.1734 31.6663 33.1006 31.4552 33.0175C29.5999 32.2922 28.464 30.9589 28.212 29.0187C27.9434 26.9475 28.7834 25.3216 30.5588 24.1722C30.7414 24.0539 30.7303 23.9822 30.6362 23.8238C29.8816 22.553 29.1381 21.2756 28.3829 20.0054C28.2139 19.7207 28.2034 19.478 28.4695 19.2534C28.8509 19.1484 28.9821 19.1958 29.1796 19.5308C29.9454 20.8289 30.7117 22.1264 31.4676 23.4306C31.5747 23.6157 31.6669 23.6709 31.8904 23.609C33.828 23.0701 35.9229 23.7225 37.1616 25.3065C38.4727 26.9833 38.6188 28.8015 37.6729 30.6992C37.4952 31.056 37.3399 31.1106 36.953 31.002C36.6967 30.9207 36.6453 30.7289 36.6818 30.4995C36.7029 30.3696 36.7691 30.2531 36.8273 30.1348C37.6023 28.5593 37.338 26.7842 36.0572 25.565C33.9264 23.5374 30.4833 24.299 29.4359 26.9808C29.3139 27.2928 29.2483 27.6187 29.1771 27.9439C29.1251 28.2316 29.1288 28.5187 29.1765 28.8063C29.4501 30.6373 30.5632 31.8541 32.4098 32.2516C33.3476 32.4537 34.2719 32.3335 35.128 31.8686C35.263 31.7952 35.3905 31.7048 35.5378 31.6605C35.7737 31.5895 35.9848 31.6119 36.1036 31.865C36.2448 32.2564 36.1952 32.3978 35.8337 32.6139C34.938 33.1479 33.9642 33.3852 32.9199 33.3185C32.7174 33.3057 32.6147 33.3476 32.5193 33.5351C30.9563 36.6072 28.451 38.4648 24.9763 38.9133C19.6624 39.5991 15.1749 36.1763 14.1182 31.3771C13.5901 28.9793 13.9987 26.7083 15.2424 24.5867C17.7545 20.3021 20.2765 16.023 22.7954 11.7427C23.2739 10.9295 24.1251 10.9307 24.6048 11.7451C25.7235 13.6459 26.8396 15.5472 27.9557 17.4492C28.1644 17.8042 28.1483 17.9365 27.8777 18.2248C27.4803 18.311 27.3639 18.2612 27.1541 17.9068C26.6093 16.9874 26.0658 16.0667 25.5216 15.1467C25.4164 15.0781 25.3452 14.9846 25.2821 14.8772C24.8066 14.0749 24.3393 13.269 23.8638 12.4667C23.701 12.1924 23.693 12.1936 23.5265 12.477C21.2385 16.3629 18.9573 20.253 16.6668 24.1376C16.1728 24.9751 15.6429 25.7968 15.3557 26.7338C14.4221 29.7749 14.9669 32.5392 17.0271 34.9892C18.4367 36.6654 20.2826 37.6103 22.4636 37.9308C23.0325 38.0145 23.6094 38.0357 24.1857 38.0133C24.2879 38.0096 24.3913 37.9908 24.4909 38.0333H24.4897Z"></path>
<path fill="white" d="M11.8983 23.6121C11.8983 24.0446 12.1236 24.2608 12.5743 24.2608C12.7285 24.2608 12.8832 24.2547 13.0367 24.2638C13.3209 24.2802 13.4911 24.4411 13.5016 24.6893C13.5128 24.949 13.3438 25.1414 13.051 25.1608C12.7644 25.1796 12.4753 25.1821 12.1886 25.1651C11.9683 25.1523 11.8711 25.2003 11.8934 25.4412C11.9175 25.7009 11.9026 25.9643 11.8977 26.2265C11.8915 26.5415 11.725 26.7266 11.4526 26.7326C11.1703 26.7387 10.9821 26.5427 10.9741 26.221C10.9673 25.9595 10.9518 25.6955 10.9784 25.4363C11.0038 25.1899 10.8992 25.1511 10.6844 25.1657C10.4392 25.1827 10.1916 25.1736 9.94522 25.1681C9.58741 25.1602 9.37199 24.986 9.37013 24.7135C9.36827 24.4392 9.58432 24.2663 9.94151 24.262C10.2083 24.259 10.4764 24.2481 10.7426 24.2657C10.9425 24.279 10.9865 24.2032 10.9772 24.0241C10.9629 23.7529 10.9691 23.4804 10.9747 23.2085C10.9815 22.8838 11.1641 22.6878 11.4458 22.6902C11.7287 22.6926 11.8927 22.8832 11.8989 23.22C11.9014 23.3511 11.8983 23.481 11.8983 23.6121Z"></path>
<path fill="white" d="M29.2067 12.6008C28.9003 12.602 28.7065 12.4139 28.6929 12.136C28.683 11.9248 28.6787 11.7118 28.6935 11.5018C28.7065 11.3234 28.6347 11.2778 28.4657 11.2869C28.2509 11.2985 28.0336 11.2967 27.8188 11.2839C27.5439 11.2681 27.3638 11.0921 27.3558 10.8524C27.3471 10.6036 27.5371 10.4106 27.8194 10.3839C27.8702 10.379 27.9222 10.3851 27.9736 10.3815C28.2057 10.3663 28.5233 10.4822 28.6465 10.3329C28.7641 10.1903 28.6873 9.89173 28.6904 9.66172C28.696 9.2806 28.8563 9.07911 29.1572 9.08033C29.4611 9.08154 29.6128 9.27696 29.6177 9.66475C29.6208 9.89476 29.5453 10.1952 29.6636 10.3347C29.7874 10.481 30.1056 10.3663 30.3377 10.3827C30.4392 10.39 30.5451 10.3894 30.641 10.4179C30.8546 10.481 30.9611 10.6455 30.9518 10.8524C30.9419 11.0715 30.8199 11.2335 30.5835 11.2736C30.4832 11.2906 30.3786 11.2888 30.2764 11.2894C29.8377 11.2918 29.618 11.5125 29.6171 11.9515C29.6171 12.0322 29.6246 12.1141 29.6128 12.193C29.575 12.4485 29.411 12.5747 29.2079 12.6008H29.2067Z"></path>
<path fill="white" d="M20.2751 32.3414C20.2732 29.2518 20.2702 26.1628 20.2695 23.0732C20.2695 22.6259 20.4224 22.4809 20.8787 22.4754C20.9709 22.4742 21.0625 22.4681 21.1548 22.4639C22.7179 22.4675 24.2816 22.4718 25.8447 22.4754C26.0811 22.4754 26.3176 22.473 26.5547 22.476C26.9113 22.4803 27.1286 22.6538 27.131 22.93C27.1335 23.2067 26.9175 23.3821 26.5603 23.3827C24.8938 23.3839 23.2273 23.3906 21.5609 23.3766C21.2705 23.3742 21.1795 23.4331 21.1857 23.7335C21.2068 24.7718 21.2012 25.8108 21.1882 26.8498C21.1851 27.0774 21.2476 27.1356 21.4791 27.1338C23.1041 27.1235 24.7298 27.1283 26.3554 27.1283C26.4377 27.1283 26.52 27.1253 26.6024 27.1302C26.8884 27.1472 27.0815 27.3316 27.0797 27.5829C27.0772 27.8317 26.8828 28.0253 26.5974 28.0338C26.2378 28.0447 25.8775 28.0368 25.5172 28.0368C24.1695 28.0368 22.8219 28.0429 21.4742 28.0308C21.2371 28.0283 21.1863 28.0963 21.1888 28.3178C21.2006 29.3768 21.2012 30.4358 21.1888 31.4942C21.1863 31.7218 21.2513 31.7819 21.4822 31.7807C23.1283 31.771 24.7743 31.7752 26.4198 31.7758C26.5324 31.7758 26.6476 31.7734 26.7584 31.7904C26.9819 31.825 27.1013 31.9779 27.1242 32.183C27.1478 32.393 27.0425 32.5581 26.8401 32.637C26.7479 32.6728 26.6395 32.6807 26.538 32.6813C24.645 32.6837 22.7525 32.6813 20.8595 32.6849C20.5877 32.6849 20.3748 32.6115 20.2751 32.3414Z"></path>
<path fill="white" d="M31.1478 27.5002C31.2976 27.4559 31.3924 27.5081 31.4896 27.6028C31.9056 28.0063 32.3376 28.3929 32.7456 28.8038C32.9041 28.9628 32.992 28.9755 33.1566 28.808C33.7788 28.1775 34.4189 27.5651 35.0491 26.9431C35.2274 26.7665 35.4285 26.6967 35.6607 26.8108C35.9603 26.9583 35.9906 27.3011 35.7207 27.573C35.2478 28.05 34.7637 28.5161 34.2839 28.987C33.9787 29.2868 33.676 29.5885 33.3671 29.8846C33.0718 30.1674 32.8273 30.1802 32.5376 29.904C31.9774 29.37 31.4289 28.8244 30.8755 28.2831C30.7133 28.1247 30.6767 27.9329 30.7547 27.7308C30.8222 27.556 30.9504 27.4456 31.1472 27.5014L31.1478 27.5002Z"></path>
<path fill="white" d="M38.3768 16.6032C38.071 16.5195 37.7634 16.4412 37.4594 16.3507C36.3767 16.0291 35.6574 15.3464 35.3336 14.2758C35.2407 13.9675 35.1504 13.6586 35.0587 13.3497C34.9436 12.9607 34.678 12.7459 34.314 12.7483C33.9568 12.7507 33.6789 12.9783 33.5724 13.3594C33.5049 13.6016 33.4418 13.8455 33.3737 14.0877C33.0425 15.2687 32.3021 16.057 31.0795 16.3817C30.8028 16.4551 30.5261 16.5298 30.25 16.6062C29.8674 16.7118 29.6334 16.9953 29.6378 17.343C29.6421 17.6853 29.8625 17.9505 30.2351 18.0561C30.3924 18.101 30.5515 18.1416 30.7118 18.1768C32.1895 18.5003 33.1168 19.3663 33.4449 20.8289C33.487 21.0152 33.5347 21.2009 33.5928 21.383C33.7012 21.7204 33.9884 21.9286 34.3252 21.9255C34.665 21.9225 34.9417 21.7143 35.047 21.3715C35.1151 21.1499 35.1745 20.926 35.2315 20.7021C35.5515 19.444 36.3166 18.6071 37.6166 18.2733C37.8742 18.2072 38.1305 18.1338 38.3861 18.0615C38.7823 17.9493 39.0021 17.6865 38.9996 17.3315C38.9971 16.9813 38.7643 16.7088 38.3768 16.6032ZM35.3677 18.4961C34.8755 19.0647 34.5573 19.7226 34.3153 20.4593C33.872 18.8141 32.8283 17.7721 31.1383 17.3478C31.8707 17.0996 32.5597 16.7998 33.1391 16.3028C33.7197 15.7238 34.0528 15.0071 34.3283 14.234C34.774 15.8725 35.8208 16.8975 37.4941 17.3284C36.6949 17.5912 35.9656 17.9292 35.3677 18.4961Z"></path>
</g>
</g>
</g>
<defs>
<clipPath id="clip0_3041_494">
<rect fill="white" height="48" width="48"></rect>
</clipPath>
</defs>
</svg>
