<svg xmlns="http://www.w3.org/2000/svg" fill="none" viewBox="0 0 48 48" height="48" width="48">
<g clip-path="url(#clip0_3041_613)">
<mask height="48" width="48" y="0" x="0" maskUnits="userSpaceOnUse" style="mask-type:luminance" id="mask0_3041_613">
<path fill="white" d="M48 0H0V48H48V0Z"></path>
</mask>
<g mask="url(#mask0_3041_613)">
<path fill="#007E40" d="M24 48C37.2548 48 48 37.2548 48 24C48 10.7452 37.2548 0 24 0C10.7452 0 0 10.7452 0 24C0 37.2548 10.7452 48 24 48Z"></path>
<path fill="white" d="M37.9416 11.4375C37.2574 11.4545 36.5187 11.5265 35.8285 11.6597C34.8597 11.8462 33.9879 12.1641 33.5337 12.5001C33.4914 12.6339 33.4793 12.8174 33.4853 12.9415C33.4853 13.0686 33.5035 13.2067 33.5277 13.3459C34.333 12.7459 35.3199 12.402 36.3189 12.0769C35.4531 12.6866 34.7084 13.3272 34.006 13.9835C34.4964 14.1996 35.0777 14.2027 35.4531 13.9369H35.4591C36.2705 13.3532 37.3543 12.3772 37.9416 11.4393V11.4375ZM19.9046 11.6549C19.7412 11.6549 19.5656 11.673 19.3839 11.7136C19.2629 12.3063 19.3355 12.8458 19.5595 13.2751C19.0146 13.0608 18.3607 13.0965 17.6947 13.6541C18.1004 15.0364 19.3234 15.6522 20.5828 15.0279C20.6191 15.5995 20.6373 16.1759 20.6373 16.7511C20.2437 16.3212 19.5959 15.9307 18.9238 15.9488C18.4515 15.967 17.9611 16.182 17.5312 16.7269C18.2093 17.9984 19.5293 18.3495 20.6312 17.4898C20.6191 18.1134 20.5888 18.737 20.5404 19.3667C20.1711 18.8581 19.5111 18.3737 18.7785 18.3798C18.4515 18.3859 18.1125 18.4888 17.7734 18.731C18.7421 19.0034 19.6261 19.3909 20.4193 19.9116C20.716 20.0993 20.8673 20.39 20.9521 20.6745C21.0308 20.9591 21.049 21.2558 21.0429 21.5585C21.0187 22.1761 20.8734 22.8239 20.6554 23.3749L20.5767 23.5566L20.4011 23.6474C20.28 23.714 20.1408 23.7806 20.0076 23.8472C19.8804 24.6222 19.7412 25.4032 19.5898 26.1904C18.6937 25.1005 17.7916 24.7009 16.9015 24.6948C14.6256 24.6706 12.3993 27.1894 10.3213 27.2318C13.1349 27.4316 17.513 24.5616 19.0388 27.9341C20.1711 28.7757 21.3336 29.4599 22.5203 29.9806C22.6171 29.4114 22.7746 28.812 22.9925 28.2792C23.1318 27.9402 23.2892 27.6253 23.489 27.3589C23.6888 27.0925 23.931 26.8503 24.3004 26.7595C24.4033 26.7292 24.5123 26.705 24.6152 26.6808C24.2882 26.045 24.3306 25.1913 24.7181 24.4769C25.1117 23.7443 25.8261 23.2357 26.5587 23.1812C27.3095 22.0368 28.0966 20.9228 28.9261 19.8269C29.5679 21.1892 30.9847 21.4374 32.1533 20.4868C31.8566 19.3909 31.0634 19.0458 30.3066 19.064C29.9675 19.07 29.6345 19.1548 29.35 19.2759C30.5427 17.732 31.8203 16.2486 33.1886 14.81C32.6921 14.5908 32.6558 14.4255 32.5287 13.9254C31.1361 15.3779 29.8343 16.8904 28.6173 18.4464C28.5871 19.4091 28.0421 20.2749 27.1218 20.4566H27.1097C26.5224 21.28 25.9533 22.1095 25.4084 22.9571C25.5476 22.055 25.6869 21.1286 25.8564 20.2083C25.4326 19.9419 25.0935 19.4939 24.9058 18.9732C24.3306 20.8198 23.9189 22.7816 23.3861 24.4769C23.3134 24.4648 23.2347 24.4587 23.1621 24.4587C22.2054 24.4527 21.3638 25.2821 21.1459 25.9058C21.8785 26.5355 22.6837 26.6566 23.3437 26.3659C23.0955 26.8079 22.8412 27.256 22.599 27.704C22.381 27.6071 22.157 27.5587 21.9451 27.5587C21.2548 27.5527 20.6252 27.9886 20.2437 28.4609C20.6615 26.4749 21.0369 24.489 21.3093 22.5091C22.4234 23.0722 23.5798 22.5757 24.0945 21.3224C23.6586 20.8683 23.1984 20.6866 22.7625 20.6806C22.2841 20.6745 21.83 20.8864 21.4728 21.171C21.5515 20.4868 21.6121 19.8027 21.6545 19.1185C22.7927 20.2386 24.264 19.9359 24.9906 18.5675C24.5607 18.0226 24.0703 17.8107 23.598 17.7925C22.7746 17.7683 21.9996 18.3556 21.6666 18.8884C21.7029 18.2405 21.7271 17.5988 21.7271 16.957C22.9683 17.5382 24.1611 16.9206 24.5607 15.5523C24.1248 15.1872 23.6949 15.0461 23.3013 15.0521C22.6474 15.0618 22.0783 15.4729 21.715 15.9428C21.7029 15.5159 21.6787 15.0891 21.6484 14.6634C23.0652 15.1303 24.2095 14.2844 24.3427 12.798C23.1439 12.1362 22.2236 12.7532 21.7453 13.5149C21.6363 12.6618 21.0793 11.6561 19.9046 11.6549ZM30.682 12.4977C28.4539 12.8501 27.0673 14.2099 26.0986 16.0094L26.2439 15.9731C26.5648 15.9125 26.8736 15.9428 27.1521 16.0457C27.8908 14.6041 28.9806 13.358 30.682 12.4977ZM38.6802 16.3575C35.8103 20.4687 31.9716 22.2185 28.1996 24.1196C28.5205 24.7554 28.4781 25.5909 28.0966 26.2993V26.3054C32.0806 23.8351 36.1373 21.4919 38.6802 16.3575ZM33.2492 16.6239C32.2925 16.6118 31.4509 17.4534 31.233 18.071C32.4984 19.1609 33.9757 18.731 34.5812 17.2657C34.1453 16.8116 33.6851 16.63 33.2492 16.6239ZM26.5285 17.0357C26.5043 17.0417 26.48 17.0417 26.4558 17.0478C26.0744 17.1204 25.7293 17.6593 25.8685 18.3738C26.0078 19.0882 26.5345 19.4636 26.9099 19.3849C27.2914 19.3122 27.6365 18.7734 27.4972 18.0589C27.364 17.3868 26.9039 17.0175 26.5285 17.0357ZM14.1454 19.3486C14.0552 19.3486 13.9589 19.3546 13.8675 19.3546C14.4361 20.8864 15.0476 22.1943 16.3384 22.9814H16.3445C17.2043 23.5263 18.2336 23.3749 19.1236 23.0359L16.5564 20.9107L19.7593 22.606C19.8502 22.0671 20.165 21.3466 19.838 20.832H19.832V20.8259C18.3486 19.8632 16.4837 19.3667 14.1454 19.3486ZM26.6738 24.271C26.3408 24.2831 25.9351 24.5132 25.6748 24.9915C25.3296 25.6333 25.4992 26.257 25.8382 26.4386C26.3589 26.6626 26.9402 26.1359 27.1339 25.7847C27.4791 25.1429 27.3095 24.5253 26.9705 24.3376C26.8857 24.2892 26.7828 24.271 26.6738 24.271ZM26.4861 27.5587C26.3953 27.5587 26.2984 27.5587 26.2076 27.5648C25.6505 27.589 25.1056 27.6738 24.5728 27.813H24.5668C24.5728 27.813 24.4759 27.8554 24.3609 28.0128C24.2459 28.1702 24.1127 28.4064 24.0037 28.6909C23.8402 29.0845 23.713 29.5568 23.6283 29.9988L27.5033 29.3872L24.3609 30.6345C24.6879 31.1189 24.7787 31.3187 24.8574 31.6759C25.3599 31.9968 25.8927 32.1421 26.5648 31.9786C28.2359 31.5851 29.5498 30.2228 30.9242 28.6183C29.35 27.8978 27.8847 27.5466 26.4861 27.5587ZM18.1791 28.6425L17.6341 30.029C19.614 30.9009 21.3033 31.912 22.9199 32.9292L23.6767 31.5609C21.7453 30.9675 19.9228 29.9685 18.1791 28.6425ZM17.4162 31.1249C16.1507 32.7779 14.6304 34.2128 12.8927 35.0544L13.3698 36.0353C15.3879 35.0544 17.0589 33.4257 18.4273 31.6032C18.1004 31.4398 17.7613 31.2763 17.4162 31.1249ZM18.6453 31.7122C17.2164 34.2613 15.842 36.0777 14.3858 38.7417L15.3455 39.2624C16.7623 36.665 18.1306 34.8425 19.614 32.2208C19.2992 32.0513 18.9722 31.8818 18.6453 31.7122ZM20.2316 32.572C18.7421 34.8546 17.6765 36.7195 16.623 39.1292L17.616 39.5652C18.6513 37.2038 19.6867 35.3995 21.164 33.123C20.8552 32.9353 20.5464 32.7476 20.2316 32.572ZM21.6242 33.4015C20.6918 34.9757 20.5888 36.8527 20.4254 38.2816L21.5031 38.4087C21.6787 36.9435 21.8119 35.2482 22.5505 33.9827L21.6242 33.4015Z"></path>
</g>
</g>
<defs>
<clipPath id="clip0_3041_613">
<rect fill="white" height="48" width="48"></rect>
</clipPath>
</defs>
</svg>
