<svg xmlns="http://www.w3.org/2000/svg" fill="none" viewBox="0 0 48 48" height="48" width="48">
<g clip-path="url(#clip0_3041_466)">
<mask height="48" width="48" y="0" x="0" maskUnits="userSpaceOnUse" style="mask-type:luminance" id="mask0_3041_466">
<path fill="white" d="M48 0H0V48H48V0Z"></path>
</mask>
<g mask="url(#mask0_3041_466)">
<path fill="#007E40" d="M24 48C37.2548 48 48 37.2548 48 24C48 10.7452 37.2548 0 24 0C10.7452 0 0 10.7452 0 24C0 37.2548 10.7452 48 24 48Z"></path>
<path stroke-linecap="round" stroke="white" d="M27.3537 19.1636C29.3895 18.761 31.419 18.9628 33.244 19.6549C33.0833 18.6453 32.5606 17.6901 31.6994 17.0012L27.632 13.7473C23.7059 10.6064 18.1272 10.6064 14.2011 13.7473L10.1337 17.0012C9.35155 17.6269 8.81508 18.5083 8.61865 19.4905C8.15755 21.796 9.65273 24.0388 11.9582 24.4999C15.0919 25.1266 18.275 25.4212 21.4563 25.3842M27.3537 19.1636L25.7516 19.4804C25.0669 19.6158 24.4151 19.8832 23.8327 20.2678M27.3537 19.1636C32.637 18.1188 37.878 21.1447 39.6148 26.2425L40.1415 27.7884C41.0988 30.5983 39.597 33.6523 36.7871 34.6097C36.2586 34.7897 35.7061 34.8861 35.1495 34.896L34.7253 34.8868C34.3505 33.4881 33.6972 32.182 32.807 31.0456L29.8304 36.1984C28.8409 37.9123 26.6493 38.4995 24.9355 37.51C23.2216 36.5205 22.6344 34.329 23.6239 32.6151M21.4563 25.3842C21.2267 23.4305 22.0809 21.4245 23.8327 20.2678M21.4563 25.3842C19.7802 25.3711 18.1044 25.2671 16.437 25.0696L16.4374 30.7707C16.4374 33.2445 18.4428 35.2499 20.9165 35.2499C21.7047 35.2499 22.4669 35.1013 23.1683 34.8267C23.0802 34.0857 23.2221 33.311 23.6239 32.6151M21.4563 25.3842C21.5511 26.1907 21.8319 26.9926 22.3123 27.7201M23.8327 20.2678C21.3554 21.9034 20.6732 25.2376 22.3123 27.7201M23.6239 32.6151L26.4614 27.6997L26.3752 27.4316C25.2007 27.29 24.01 27.3434 22.8515 27.5905M23.6239 32.6151L26.5996 27.4611C25.3526 27.284 24.0838 27.3277 22.8515 27.5905M22.3123 27.7201L22.8515 27.5905M26.5514 23.9611C30.4673 23.4635 34.3342 25.696 35.8612 29.3361"></path>
</g>
</g>
<defs>
<clipPath id="clip0_3041_466">
<rect fill="white" height="48" width="48"></rect>
</clipPath>
</defs>
</svg>
