<svg xmlns="http://www.w3.org/2000/svg" fill="none" viewBox="0 0 48 48" height="48" width="48">
<g clip-path="url(#clip0_3041_627)">
<mask height="48" width="48" y="0" x="0" maskUnits="userSpaceOnUse" style="mask-type:luminance" id="mask0_3041_627">
<path fill="white" d="M48 0H0V48H48V0Z"></path>
</mask>
<g mask="url(#mask0_3041_627)">
<path fill="#007E40" d="M24 48C37.2548 48 48 37.2548 48 24C48 10.7452 37.2548 0 24 0C10.7452 0 0 10.7452 0 24C0 37.2548 10.7452 48 24 48Z"></path>
<mask height="29" width="27" y="9" x="11" maskUnits="userSpaceOnUse" style="mask-type:luminance" id="mask1_3041_627">
<path fill="white" d="M38 9H11V38H38V9Z"></path>
</mask>
<g mask="url(#mask1_3041_627)">
<path fill="white" d="M23.5253 37.9993C22.4781 37.6848 21.7413 37.0579 21.4708 35.9765C21.4132 35.7471 21.2288 35.745 21.0651 35.7056C19.363 35.2968 17.8182 34.5622 16.4251 33.5167C15.8684 33.0988 15.3402 32.6478 14.8704 32.1355C14.7251 31.9772 14.5899 31.9273 14.3785 31.9885C13.117 32.353 11.9154 31.7057 11.3829 30.798C10.7508 29.7201 10.9095 28.4839 11.8058 27.5763C11.9681 27.4116 12.0051 27.2716 11.9389 27.0507C11.2284 24.7021 11.2555 22.35 11.9453 20.0035C12.0143 19.7685 11.9738 19.6193 11.8015 19.4469C10.9102 18.5527 10.7536 17.275 11.3879 16.2245C12.0044 15.2036 13.238 14.7188 14.4283 15.0593C14.6668 15.1276 14.7935 15.0692 14.948 14.9095C16.6436 13.1589 18.6839 11.9896 21.0658 11.4147C21.3178 11.3542 21.4295 11.2424 21.4972 10.9926C21.8182 9.8021 22.8661 9.0007 24.0635 9C25.2786 8.9993 26.3244 9.8021 26.6547 11.0116C26.7152 11.2332 26.8163 11.343 27.0433 11.3978C29.4502 11.979 31.5103 13.1568 33.206 14.9468C33.3441 15.0924 33.4666 15.1325 33.6694 15.0755C35.326 14.6048 36.8664 15.5899 37.1135 17.2651C37.122 17.3221 37.1427 17.3777 37.1576 17.434V17.7851C37.0394 18.4021 36.8515 18.9959 36.3667 19.4294C36.141 19.6306 36.1354 19.8051 36.2158 20.0675C36.5981 21.3164 36.7682 22.599 36.7255 23.9007C36.6899 24.9863 36.5326 26.06 36.2023 27.1027C36.1617 27.2315 36.1069 27.3694 36.2478 27.4897C36.8045 27.9661 37.0544 28.5951 37.1583 29.2958V29.5766C37.1448 29.6216 37.1234 29.6652 37.1199 29.711C37.0074 31.2511 35.395 32.4691 33.7356 31.9808C33.5242 31.9188 33.406 31.9927 33.2765 32.1306C32.801 32.6358 32.2834 33.0967 31.7267 33.5139C30.3343 34.558 28.7889 35.2862 27.0939 35.707C26.9287 35.7478 26.7337 35.7492 26.6767 35.9708C26.3955 37.0614 25.6645 37.7024 24.5924 38H23.5274L23.5253 37.9993ZM35.5075 23.2984C35.5053 22.5399 35.3637 21.5141 35.0868 20.5045C35.0234 20.273 34.9245 20.1787 34.6689 20.1991C33.6175 20.2835 32.7938 19.8607 32.23 19.0002C31.6534 18.1207 31.6264 17.1765 32.1717 16.2808C32.4002 15.9051 32.3076 15.713 32.0385 15.4569C30.6034 14.0912 28.9369 13.1329 27.0106 12.6172C26.7315 12.5426 26.5849 12.5665 26.4318 12.8571C25.9435 13.7851 25.1334 14.2784 24.0784 14.2819C23.022 14.2854 22.2154 13.7887 21.7178 12.8677C21.5691 12.5918 21.4352 12.5412 21.1469 12.6186C19.1494 13.1554 17.431 14.1602 15.9496 15.5821C15.7239 15.7988 15.7773 15.9473 15.9211 16.1788C16.4899 17.097 16.5098 18.0461 15.9375 18.9629C15.3815 19.8522 14.5415 20.2695 13.4822 20.1984C13.2017 20.1794 13.1071 20.2934 13.0444 20.5284C12.5248 22.4893 12.4863 24.4495 13.0074 26.4182C13.0857 26.7144 13.1996 26.8396 13.5335 26.8262C14.6383 26.7819 15.4918 27.2505 16.0172 28.2067C16.5369 29.153 16.4521 30.1001 15.8364 30.9873C15.7139 31.1639 15.7061 31.2715 15.8648 31.432C17.3591 32.9362 19.1338 33.9586 21.1939 34.5017C21.4139 34.5594 21.5441 34.5235 21.641 34.3033C21.8175 33.9009 22.0887 33.5617 22.4461 33.2958C23.8058 32.2819 25.6815 32.7132 26.4596 34.2231C26.5614 34.4208 26.6362 34.5911 26.928 34.5137C28.9989 33.9642 30.7864 32.9419 32.282 31.42C32.4201 31.2793 32.4407 31.1773 32.3183 31.0028C31.6812 30.093 31.605 29.127 32.1532 28.1609C32.7027 27.1928 33.584 26.7636 34.6981 26.8283C34.9544 26.8431 35.0505 26.7643 35.111 26.53C35.3601 25.5633 35.5075 24.5853 35.5075 23.2984ZM34.4646 28.0329C33.6502 28.0343 32.9903 28.6865 33.0038 29.4753C33.0174 30.2478 33.6858 30.893 34.471 30.8895C35.264 30.886 35.9211 30.2443 35.9261 29.4682C35.931 28.6542 35.2968 28.0315 34.4646 28.0329ZM12.2372 17.5838C12.2386 18.4077 12.8714 19.0339 13.6929 19.0255C14.4781 19.0171 15.1259 18.3648 15.1266 17.5824C15.1266 16.8036 14.4739 16.145 13.6915 16.1358C12.8899 16.1267 12.2357 16.7782 12.2372 17.5838ZM35.9254 17.5916C35.9254 16.8141 35.2711 16.1492 34.4952 16.1358C33.7072 16.1225 33.0124 16.7951 33.0081 17.5754C33.0038 18.362 33.6744 19.0241 34.4767 19.0248C35.2548 19.0248 35.9254 18.362 35.9254 17.5916ZM25.5043 35.3974C25.4993 34.5615 24.8835 33.9431 24.0635 33.9501C23.2491 33.9564 22.6205 34.5939 22.6248 35.4087C22.629 36.2065 23.2533 36.8088 24.0727 36.8067C24.8971 36.8046 25.5093 36.2023 25.5043 35.3974ZM24.0556 13.0724C24.8985 13.0759 25.5007 12.4828 25.5064 11.6441C25.5114 10.8413 24.8928 10.2221 24.0841 10.22C23.2797 10.2179 22.6262 10.8434 22.6233 11.6181C22.6205 12.4511 23.2291 13.0682 24.0556 13.0724ZM12.2372 29.4619C12.2421 30.2724 12.8572 30.8881 13.6652 30.8895C14.4795 30.8909 15.1259 30.252 15.1266 29.4471C15.1266 28.6359 14.4902 28.0259 13.6495 28.0336C12.8309 28.0406 12.2322 28.6457 12.2372 29.4619Z"></path>
<path fill="white" d="M24.0871 31.4925C24.0402 31.4925 23.9917 31.4989 23.9455 31.4925C23.1759 31.375 22.5588 31.4637 21.9223 32.0892C21.0788 32.918 19.6814 32.8244 18.7474 32.1222C17.7971 31.4081 17.4311 30.1888 17.8583 29.0785C17.9487 28.8442 17.9408 28.688 17.7785 28.4826C14.0569 23.7755 16.6153 16.945 22.541 15.7595C23.5361 15.5604 24.5385 15.5505 25.5337 15.7525C25.7942 15.8052 25.9352 15.7419 26.1053 15.5505C26.8321 14.7322 27.7511 14.4198 28.8211 14.6992C29.8597 14.9708 30.5068 15.6652 30.7445 16.6981C30.8755 17.2687 30.8186 17.8442 30.5452 18.3726C30.4299 18.595 30.4584 18.7469 30.6007 18.9411C31.6052 20.3089 32.1206 21.8561 32.1092 23.5335C32.0829 27.5074 29.3237 30.4977 25.9138 31.2836C25.3137 31.4222 24.7065 31.5115 24.0871 31.4925ZM24.0992 30.2922C24.6346 30.2901 25.1613 30.2331 25.6817 30.1086C30.2797 29.0096 32.3811 23.6524 29.7266 19.796C29.6191 19.6398 29.5472 19.4906 29.2866 19.6152C27.4287 20.501 25.429 19.0523 25.4909 17.2687C25.4995 17.0238 25.3856 16.9352 25.1685 16.9028C24.4146 16.7895 23.6607 16.7811 22.9097 16.9127C17.9451 17.7844 15.6073 23.4469 18.5324 27.4968C18.7147 27.7487 18.857 27.8149 19.1638 27.6615C20.7015 26.8938 22.5146 27.7389 22.9439 29.3909C23.0172 29.673 22.8862 30.0734 23.1902 30.2148C23.4486 30.3351 23.7931 30.2732 24.0992 30.2922ZM28.1092 18.678C28.9129 18.6914 29.5949 18.0434 29.6041 17.2574C29.6134 16.4856 28.962 15.8341 28.1711 15.8228C27.3518 15.8116 26.6933 16.4335 26.6769 17.2328C26.6613 18.0004 27.3197 18.6646 28.1092 18.678ZM20.342 28.5937C19.5162 28.5965 18.914 29.1911 18.9118 30.0051C18.9097 30.8326 19.5347 31.4581 20.3569 31.451C21.1663 31.4447 21.8084 30.7946 21.8006 29.9897C21.7935 29.1946 21.1621 28.5909 20.342 28.5937Z"></path>
<path fill="white" d="M27.6105 23.5764C27.5884 25.5592 25.9953 27.0951 23.9885 27.0677C22.0622 27.0416 20.5046 25.4304 20.5231 23.4836C20.5409 21.5937 22.1796 20.0141 24.0981 20.0374C26.0522 20.0613 27.6318 21.6528 27.6105 23.5764ZM24.0483 25.8505C25.3603 25.8575 26.4053 24.8443 26.4117 23.5603C26.4181 22.3079 25.3667 21.2581 24.0939 21.2461C22.794 21.2335 21.7539 22.2572 21.7518 23.5518C21.7497 24.8506 22.742 25.8434 24.0483 25.8505Z"></path>
</g>
</g>
</g>
<defs>
<clipPath id="clip0_3041_627">
<rect fill="white" height="48" width="48"></rect>
</clipPath>
</defs>
</svg>
